<svg xmlns="http://www.w3.org/2000/svg" viewBox="0 0 128 128" width="256" height="256">
  <!-- 
    WANG TILESET - DIRT GROUND
    16 tiles in 4x4 grid, each 32x32
    Edges designed to seamlessly connect
    Color palette: browns with subtle variation
  -->
  
  <!-- ROW 0 -->
  
  <!-- Tile 0,0 - Base dirt A -->
  <g transform="translate(0, 0)">
    <rect x="0" y="0" width="32" height="32" fill="#5D4037"/>
    <rect x="4" y="4" width="4" height="4" fill="#4E342E"/>
    <rect x="12" y="8" width="4" height="4" fill="#6D4C41"/>
    <rect x="24" y="4" width="4" height="4" fill="#4E342E"/>
    <rect x="8" y="16" width="4" height="4" fill="#795548"/>
    <rect x="20" y="12" width="4" height="4" fill="#4E342E"/>
    <rect x="16" y="20" width="4" height="4" fill="#6D4C41"/>
    <rect x="4" y="24" width="4" height="4" fill="#6D4C41"/>
    <rect x="24" y="24" width="4" height="4" fill="#4E342E"/>
    <rect x="12" y="28" width="4" height="4" fill="#795548"/>
  </g>
  
  <!-- Tile 1,0 - Base dirt B -->
  <g transform="translate(32, 0)">
    <rect x="0" y="0" width="32" height="32" fill="#5D4037"/>
    <rect x="8" y="4" width="4" height="4" fill="#795548"/>
    <rect x="20" y="8" width="4" height="4" fill="#4E342E"/>
    <rect x="4" y="12" width="4" height="4" fill="#6D4C41"/>
    <rect x="16" y="16" width="4" height="4" fill="#4E342E"/>
    <rect x="28" y="12" width="4" height="4" fill="#6D4C41"/>
    <rect x="8" y="24" width="4" height="4" fill="#4E342E"/>
    <rect x="24" y="20" width="4" height="4" fill="#795548"/>
    <rect x="12" y="28" width="4" height="4" fill="#6D4C41"/>
    <rect x="0" y="20" width="4" height="4" fill="#4E342E"/>
  </g>
  
  <!-- Tile 2,0 - Base dirt C (darker) -->
  <g transform="translate(64, 0)">
    <rect x="0" y="0" width="32" height="32" fill="#4E342E"/>
    <rect x="4" y="4" width="4" height="4" fill="#5D4037"/>
    <rect x="16" y="4" width="4" height="4" fill="#3E2723"/>
    <rect x="24" y="8" width="4" height="4" fill="#5D4037"/>
    <rect x="8" y="12" width="4" height="4" fill="#6D4C41"/>
    <rect x="20" y="16" width="4" height="4" fill="#3E2723"/>
    <rect x="4" y="20" width="4" height="4" fill="#5D4037"/>
    <rect x="12" y="24" width="4" height="4" fill="#3E2723"/>
    <rect x="24" y="24" width="4" height="4" fill="#5D4037"/>
    <rect x="0" y="28" width="4" height="4" fill="#6D4C41"/>
  </g>
  
  <!-- Tile 3,0 - Base dirt D (lighter) -->
  <g transform="translate(96, 0)">
    <rect x="0" y="0" width="32" height="32" fill="#6D4C41"/>
    <rect x="8" y="4" width="4" height="4" fill="#5D4037"/>
    <rect x="20" y="4" width="4" height="4" fill="#795548"/>
    <rect x="4" y="12" width="4" height="4" fill="#5D4037"/>
    <rect x="16" y="8" width="4" height="4" fill="#8D6E63"/>
    <rect x="24" y="16" width="4" height="4" fill="#5D4037"/>
    <rect x="8" y="20" width="4" height="4" fill="#795548"/>
    <rect x="0" y="24" width="4" height="4" fill="#5D4037"/>
    <rect x="20" y="24" width="4" height="4" fill="#5D4037"/>
    <rect x="28" y="28" width="4" height="4" fill="#795548"/>
  </g>
  
  <!-- ROW 1 -->
  
  <!-- Tile 0,1 - Dirt with small rocks -->
  <g transform="translate(0, 32)">
    <rect x="0" y="0" width="32" height="32" fill="#5D4037"/>
    <rect x="4" y="8" width="4" height="4" fill="#4E342E"/>
    <rect x="20" y="4" width="4" height="4" fill="#6D4C41"/>
    <!-- Small rock cluster -->
    <rect x="12" y="12" width="4" height="4" fill="#757575"/>
    <rect x="16" y="12" width="4" height="4" fill="#616161"/>
    <rect x="14" y="16" width="4" height="4" fill="#9E9E9E"/>
    <rect x="8" y="24" width="4" height="4" fill="#4E342E"/>
    <rect x="24" y="20" width="4" height="4" fill="#795548"/>
    <rect x="4" y="28" width="4" height="4" fill="#6D4C41"/>
  </g>
  
  <!-- Tile 1,1 - Dirt with pebbles scattered -->
  <g transform="translate(32, 32)">
    <rect x="0" y="0" width="32" height="32" fill="#5D4037"/>
    <rect x="4" y="4" width="2" height="2" fill="#9E9E9E"/>
    <rect x="20" y="8" width="2" height="2" fill="#757575"/>
    <rect x="8" y="16" width="2" height="2" fill="#BDBDBD"/>
    <rect x="24" y="20" width="2" height="2" fill="#757575"/>
    <rect x="12" y="24" width="2" height="2" fill="#9E9E9E"/>
    <rect x="4" y="12" width="4" height="4" fill="#4E342E"/>
    <rect x="16" y="4" width="4" height="4" fill="#6D4C41"/>
    <rect x="20" y="24" width="4" height="4" fill="#4E342E"/>
    <rect x="28" y="12" width="4" height="4" fill="#795548"/>
  </g>
  
  <!-- Tile 2,1 - Dirt cracked -->
  <g transform="translate(64, 32)">
    <rect x="0" y="0" width="32" height="32" fill="#5D4037"/>
    <!-- Crack lines -->
    <rect x="8" y="4" width="2" height="8" fill="#3E2723"/>
    <rect x="10" y="10" width="6" height="2" fill="#3E2723"/>
    <rect x="16" y="8" width="2" height="6" fill="#3E2723"/>
    <rect x="4" y="20" width="4" height="2" fill="#3E2723"/>
    <rect x="20" y="16" width="2" height="8" fill="#3E2723"/>
    <rect x="22" y="22" width="6" height="2" fill="#3E2723"/>
    <rect x="12" y="26" width="4" height="2" fill="#3E2723"/>
  </g>
  
  <!-- Tile 3,1 - Dirt with dry patches -->
  <g transform="translate(96, 32)">
    <rect x="0" y="0" width="32" height="32" fill="#5D4037"/>
    <!-- Dry/lighter patches -->
    <rect x="4" y="4" width="8" height="8" fill="#8D6E63"/>
    <rect x="20" y="12" width="8" height="8" fill="#A1887F"/>
    <rect x="8" y="20" width="8" height="8" fill="#8D6E63"/>
    <rect x="16" y="4" width="4" height="4" fill="#4E342E"/>
    <rect x="4" y="16" width="4" height="4" fill="#4E342E"/>
    <rect x="24" y="24" width="4" height="4" fill="#6D4C41"/>
  </g>
  
  <!-- ROW 2 -->
  
  <!-- Tile 0,2 - Rocky dirt A -->
  <g transform="translate(0, 64)">
    <rect x="0" y="0" width="32" height="32" fill="#5D4037"/>
    <rect x="4" y="4" width="8" height="6" fill="#757575"/>
    <rect x="6" y="6" width="4" height="2" fill="#9E9E9E"/>
    <rect x="20" y="8" width="6" height="8" fill="#616161"/>
    <rect x="22" y="10" width="2" height="4" fill="#9E9E9E"/>
    <rect x="8" y="20" width="8" height="6" fill="#757575"/>
    <rect x="10" y="22" width="4" height="2" fill="#BDBDBD"/>
    <rect x="24" y="24" width="4" height="4" fill="#4E342E"/>
  </g>
  
  <!-- Tile 1,2 - Rocky dirt B -->
  <g transform="translate(32, 64)">
    <rect x="0" y="0" width="32" height="32" fill="#4E342E"/>
    <rect x="12" y="4" width="10" height="8" fill="#616161"/>
    <rect x="14" y="6" width="6" height="4" fill="#757575"/>
    <rect x="4" y="16" width="8" height="6" fill="#757575"/>
    <rect x="6" y="18" width="4" height="2" fill="#9E9E9E"/>
    <rect x="20" y="20" width="8" height="8" fill="#616161"/>
    <rect x="22" y="22" width="4" height="4" fill="#9E9E9E"/>
    <rect x="0" y="4" width="4" height="4" fill="#5D4037"/>
  </g>
  
  <!-- Tile 2,2 - Gravel heavy -->
  <g transform="translate(64, 64)">
    <rect x="0" y="0" width="32" height="32" fill="#757575"/>
    <rect x="4" y="4" width="4" height="4" fill="#616161"/>
    <rect x="12" y="4" width="4" height="4" fill="#9E9E9E"/>
    <rect x="24" y="4" width="4" height="4" fill="#616161"/>
    <rect x="8" y="12" width="4" height="4" fill="#BDBDBD"/>
    <rect x="20" y="12" width="4" height="4" fill="#616161"/>
    <rect x="4" y="20" width="4" height="4" fill="#9E9E9E"/>
    <rect x="16" y="20" width="4" height="4" fill="#616161"/>
    <rect x="24" y="24" width="4" height="4" fill="#9E9E9E"/>
    <rect x="8" y="28" width="4" height="4" fill="#616161"/>
    <rect x="0" y="12" width="4" height="4" fill="#5D4037"/>
    <rect x="28" y="16" width="4" height="4" fill="#5D4037"/>
  </g>
  
  <!-- Tile 3,2 - Mixed gravel/dirt -->
  <g transform="translate(96, 64)">
    <rect x="0" y="0" width="32" height="32" fill="#6D4C41"/>
    <rect x="4" y="4" width="4" height="4" fill="#757575"/>
    <rect x="8" y="8" width="4" height="4" fill="#9E9E9E"/>
    <rect x="20" y="4" width="4" height="4" fill="#616161"/>
    <rect x="16" y="12" width="4" height="4" fill="#757575"/>
    <rect x="4" y="16" width="4" height="4" fill="#9E9E9E"/>
    <rect x="24" y="20" width="4" height="4" fill="#757575"/>
    <rect x="12" y="24" width="4" height="4" fill="#616161"/>
    <rect x="0" y="24" width="4" height="4" fill="#5D4037"/>
    <rect x="28" y="8" width="4" height="4" fill="#4E342E"/>
  </g>
  
  <!-- ROW 3 -->
  
  <!-- Tile 0,3 - Dark stone -->
  <g transform="translate(0, 96)">
    <rect x="0" y="0" width="32" height="32" fill="#424242"/>
    <rect x="4" y="4" width="4" height="4" fill="#616161"/>
    <rect x="16" y="4" width="4" height="4" fill="#303030"/>
    <rect x="24" y="8" width="4" height="4" fill="#616161"/>
    <rect x="8" y="12" width="4" height="4" fill="#757575"/>
    <rect x="20" y="16" width="4" height="4" fill="#303030"/>
    <rect x="4" y="20" width="4" height="4" fill="#303030"/>
    <rect x="12" y="24" width="4" height="4" fill="#616161"/>
    <rect x="24" y="24" width="4" height="4" fill="#757575"/>
    <rect x="0" y="28" width="4" height="4" fill="#616161"/>
  </g>
  
  <!-- Tile 1,3 - Stone with moss hints -->
  <g transform="translate(32, 96)">
    <rect x="0" y="0" width="32" height="32" fill="#424242"/>
    <rect x="4" y="4" width="4" height="4" fill="#616161"/>
    <rect x="20" y="4" width="4" height="4" fill="#757575"/>
    <!-- Moss/green tint -->
    <rect x="8" y="12" width="4" height="4" fill="#4E6E4E"/>
    <rect x="12" y="16" width="4" height="4" fill="#3E5E3E"/>
    <rect x="4" y="20" width="4" height="4" fill="#4E6E4E"/>
    <rect x="24" y="16" width="4" height="4" fill="#616161"/>
    <rect x="16" y="24" width="4" height="4" fill="#303030"/>
    <rect x="28" y="24" width="4" height="4" fill="#757575"/>
  </g>
  
  <!-- Tile 2,3 - Bloodstained dirt (for battlefield) -->
  <g transform="translate(64, 96)">
    <rect x="0" y="0" width="32" height="32" fill="#5D4037"/>
    <rect x="4" y="4" width="4" height="4" fill="#4E342E"/>
    <rect x="20" y="8" width="4" height="4" fill="#6D4C41"/>
    <!-- Blood stains -->
    <rect x="8" y="12" width="4" height="4" fill="#4A0000"/>
    <rect x="12" y="12" width="4" height="4" fill="#6B0000"/>
    <rect x="10" y="16" width="4" height="4" fill="#8B0000"/>
    <rect x="20" y="20" width="4" height="4" fill="#4A0000"/>
    <rect x="24" y="20" width="4" height="4" fill="#6B0000"/>
    <rect x="4" y="24" width="4" height="4" fill="#6D4C41"/>
    <rect x="16" y="28" width="4" height="4" fill="#4E342E"/>
  </g>
  
  <!-- Tile 3,3 - Scorched earth -->
  <g transform="translate(96, 96)">
    <rect x="0" y="0" width="32" height="32" fill="#3E2723"/>
    <rect x="4" y="4" width="4" height="4" fill="#212121"/>
    <rect x="16" y="4" width="4" height="4" fill="#1A1A1A"/>
    <rect x="24" y="8" width="4" height="4" fill="#212121"/>
    <rect x="8" y="12" width="4" height="4" fill="#4E342E"/>
    <rect x="20" y="16" width="4" height="4" fill="#1A1A1A"/>
    <!-- Ember glow -->
    <rect x="12" y="20" width="4" height="4" fill="#BF360C"/>
    <rect x="16" y="20" width="4" height="4" fill="#E64A19"/>
    <rect x="4" y="24" width="4" height="4" fill="#212121"/>
    <rect x="24" y="28" width="4" height="4" fill="#3E2723"/>
  </g>
</svg>