<svg xmlns="http://www.w3.org/2000/svg" viewBox="0 0 512 80" width="1024" height="160">
  <!-- 
    FIRE IMP SPRITE SHEET - Flame Atronach Style
    8 frames at 64x80 each
    Layout: [idle] [turn] [move1] [move2] [death1] [death2] [death3] [ash]
  -->
  <style>
    @keyframes flameFlicker1 {
      0%, 100% { transform: translateY(0); opacity: 1; }
      50% { transform: translateY(-2px); opacity: 0.8; }
    }
    @keyframes flameFlicker2 {
      0%, 100% { transform: translateY(-1px); opacity: 0.9; }
      50% { transform: translateY(1px); opacity: 1; }
    }
    .flame-top-1 { animation: flameFlicker1 0.3s ease-in-out infinite; }
    .flame-top-2 { animation: flameFlicker2 0.25s ease-in-out infinite; }
  </style>
  
  <!-- FRAME 0: IDLE (x=0) - Front facing -->
  <g transform="translate(0, 0)">
    <!-- Shadow -->
    <ellipse cx="32" cy="76" rx="10" ry="3" fill="#000000" opacity="0.5"/>
    
    <!-- Flame hair -->
    <g class="flame-top-1">
      <rect x="30" y="0" width="4" height="4" fill="#FF6F00"/>
      <rect x="30" y="4" width="4" height="4" fill="#FF9800"/>
    </g>
    <g class="flame-top-2">
      <rect x="26" y="4" width="4" height="4" fill="#FF6F00"/>
      <rect x="34" y="4" width="4" height="4" fill="#FF6F00"/>
      <rect x="26" y="8" width="4" height="4" fill="#FFA726"/>
      <rect x="34" y="8" width="4" height="4" fill="#FFA726"/>
    </g>
    
    <!-- Horns -->
    <rect x="20" y="12" width="4" height="4" fill="#1A1A1A"/>
    <rect x="16" y="16" width="4" height="4" fill="#2D2D2D"/>
    <rect x="12" y="16" width="4" height="4" fill="#1A1A1A"/>
    <rect x="12" y="20" width="4" height="4" fill="#2D2D2D"/>
    <rect x="40" y="12" width="4" height="4" fill="#1A1A1A"/>
    <rect x="44" y="16" width="4" height="4" fill="#2D2D2D"/>
    <rect x="48" y="16" width="4" height="4" fill="#1A1A1A"/>
    <rect x="48" y="20" width="4" height="4" fill="#2D2D2D"/>
    
    <!-- Head -->
    <rect x="28" y="8" width="4" height="4" fill="#FFEB3B"/>
    <rect x="32" y="8" width="4" height="4" fill="#FFC107"/>
    <rect x="26" y="12" width="4" height="4" fill="#FF9800"/>
    <rect x="30" y="12" width="4" height="4" fill="#FFEB3B"/>
    <rect x="34" y="12" width="4" height="4" fill="#FF9800"/>
    <rect x="24" y="16" width="4" height="4" fill="#1A1A1A"/>
    <rect x="28" y="16" width="4" height="4" fill="#2D2D2D"/>
    <rect x="32" y="16" width="4" height="4" fill="#2D2D2D"/>
    <rect x="36" y="16" width="4" height="4" fill="#1A1A1A"/>
    <rect x="24" y="20" width="4" height="4" fill="#2D2D2D"/>
    <rect x="28" y="20" width="4" height="4" fill="#FFEB3B"/>
    <rect x="32" y="20" width="4" height="4" fill="#FFEB3B"/>
    <rect x="36" y="20" width="4" height="4" fill="#2D2D2D"/>
    <rect x="28" y="24" width="4" height="4" fill="#1A1A1A"/>
    <rect x="32" y="24" width="4" height="4" fill="#1A1A1A"/>
    
    <!-- Neck -->
    <rect x="30" y="28" width="4" height="4" fill="#FF6F00"/>
    
    <!-- Shoulders -->
    <rect x="24" y="32" width="4" height="4" fill="#1A1A1A"/>
    <rect x="28" y="32" width="4" height="4" fill="#FF9800"/>
    <rect x="32" y="32" width="4" height="4" fill="#FF9800"/>
    <rect x="36" y="32" width="4" height="4" fill="#1A1A1A"/>
    
    <!-- Arms -->
    <rect x="20" y="32" width="4" height="4" fill="#2D2D2D"/>
    <rect x="20" y="36" width="4" height="4" fill="#1A1A1A"/>
    <rect x="20" y="40" width="4" height="4" fill="#FF6F00"/>
    <rect x="20" y="44" width="4" height="4" fill="#2D2D2D"/>
    <rect x="20" y="48" width="4" height="4" fill="#1A1A1A"/>
    <rect x="20" y="52" width="4" height="4" fill="#FF9800"/>
    <rect x="18" y="56" width="4" height="4" fill="#2D2D2D"/>
    <rect x="22" y="56" width="4" height="4" fill="#FFC107"/>
    <rect x="16" y="60" width="4" height="4" fill="#FFEB3B"/>
    <rect x="20" y="60" width="4" height="4" fill="#FF9800"/>
    
    <rect x="40" y="32" width="4" height="4" fill="#2D2D2D"/>
    <rect x="40" y="36" width="4" height="4" fill="#1A1A1A"/>
    <rect x="40" y="40" width="4" height="4" fill="#FF6F00"/>
    <rect x="40" y="44" width="4" height="4" fill="#2D2D2D"/>
    <rect x="40" y="48" width="4" height="4" fill="#1A1A1A"/>
    <rect x="40" y="52" width="4" height="4" fill="#FF9800"/>
    <rect x="38" y="56" width="4" height="4" fill="#FFC107"/>
    <rect x="42" y="56" width="4" height="4" fill="#2D2D2D"/>
    <rect x="40" y="60" width="4" height="4" fill="#FF9800"/>
    <rect x="44" y="60" width="4" height="4" fill="#FFEB3B"/>
    
    <!-- Torso -->
    <rect x="26" y="36" width="4" height="4" fill="#2D2D2D"/>
    <rect x="30" y="36" width="4" height="4" fill="#FFC107"/>
    <rect x="34" y="36" width="4" height="4" fill="#2D2D2D"/>
    <rect x="26" y="40" width="4" height="4" fill="#1A1A1A"/>
    <rect x="30" y="40" width="4" height="4" fill="#FFEB3B"/>
    <rect x="34" y="40" width="4" height="4" fill="#1A1A1A"/>
    <rect x="28" y="44" width="4" height="4" fill="#2D2D2D"/>
    <rect x="32" y="44" width="4" height="4" fill="#FF9800"/>
    <rect x="28" y="48" width="4" height="4" fill="#FF6F00"/>
    <rect x="32" y="48" width="4" height="4" fill="#1A1A1A"/>
    <rect x="26" y="52" width="4" height="4" fill="#1A1A1A"/>
    <rect x="30" y="52" width="4" height="4" fill="#2D2D2D"/>
    <rect x="34" y="52" width="4" height="4" fill="#1A1A1A"/>
    
    <!-- Legs -->
    <rect x="26" y="56" width="4" height="4" fill="#2D2D2D"/>
    <rect x="26" y="60" width="4" height="4" fill="#FF6F00"/>
    <rect x="26" y="64" width="4" height="4" fill="#1A1A1A"/>
    <rect x="26" y="68" width="4" height="4" fill="#FF9800"/>
    <rect x="34" y="56" width="4" height="4" fill="#2D2D2D"/>
    <rect x="34" y="60" width="4" height="4" fill="#FF6F00"/>
    <rect x="34" y="64" width="4" height="4" fill="#1A1A1A"/>
    <rect x="34" y="68" width="4" height="4" fill="#FF9800"/>
    
    <!-- Feet flames -->
    <rect x="24" y="72" width="4" height="4" fill="#FFC107"/>
    <rect x="28" y="72" width="4" height="4" fill="#FFEB3B"/>
    <rect x="36" y="72" width="4" height="4" fill="#FFEB3B"/>
    <rect x="40" y="72" width="4" height="4" fill="#FFC107"/>
  </g>
  
  <!-- FRAME 1: TURN (x=64) - Transitioning to side view -->
  <g transform="translate(64, 0)">
    <!-- Shadow slightly offset -->
    <ellipse cx="34" cy="76" rx="8" ry="3" fill="#000000" opacity="0.5"/>
    
    <!-- Flame hair angled -->
    <rect x="32" y="0" width="4" height="4" fill="#FF6F00"/>
    <rect x="32" y="4" width="4" height="4" fill="#FF9800"/>
    <rect x="28" y="4" width="4" height="4" fill="#FF6F00"/>
    <rect x="28" y="8" width="4" height="4" fill="#FFA726"/>
    
    <!-- Back horn visible -->
    <rect x="20" y="12" width="4" height="4" fill="#1A1A1A"/>
    <rect x="16" y="16" width="4" height="4" fill="#2D2D2D"/>
    <rect x="12" y="20" width="4" height="4" fill="#1A1A1A"/>
    <!-- Front horn -->
    <rect x="40" y="14" width="4" height="4" fill="#1A1A1A"/>
    <rect x="44" y="18" width="4" height="4" fill="#2D2D2D"/>
    <rect x="48" y="22" width="4" height="4" fill="#1A1A1A"/>
    
    <!-- Head 3/4 view -->
    <rect x="30" y="8" width="4" height="4" fill="#FFEB3B"/>
    <rect x="34" y="8" width="4" height="4" fill="#FFC107"/>
    <rect x="26" y="12" width="4" height="4" fill="#FF9800"/>
    <rect x="30" y="12" width="4" height="4" fill="#FFEB3B"/>
    <rect x="34" y="12" width="4" height="4" fill="#FF9800"/>
    <rect x="24" y="16" width="4" height="4" fill="#1A1A1A"/>
    <rect x="28" y="16" width="4" height="4" fill="#2D2D2D"/>
    <rect x="32" y="16" width="4" height="4" fill="#2D2D2D"/>
    <rect x="36" y="16" width="4" height="4" fill="#1A1A1A"/>
    <rect x="28" y="20" width="4" height="4" fill="#2D2D2D"/>
    <rect x="32" y="20" width="4" height="4" fill="#FFEB3B"/>
    <rect x="36" y="20" width="4" height="4" fill="#1A1A1A"/>
    <rect x="30" y="24" width="4" height="4" fill="#1A1A1A"/>
    <rect x="34" y="24" width="4" height="4" fill="#2D2D2D"/>
    
    <!-- Neck -->
    <rect x="32" y="28" width="4" height="4" fill="#FF6F00"/>
    
    <!-- Body turning -->
    <rect x="26" y="32" width="4" height="4" fill="#1A1A1A"/>
    <rect x="30" y="32" width="4" height="4" fill="#FF9800"/>
    <rect x="34" y="32" width="4" height="4" fill="#2D2D2D"/>
    
    <!-- Back arm (behind) -->
    <rect x="22" y="36" width="4" height="4" fill="#1A1A1A"/>
    <rect x="22" y="40" width="4" height="4" fill="#2D2D2D"/>
    <rect x="22" y="44" width="4" height="4" fill="#FF6F00"/>
    <rect x="20" y="48" width="4" height="4" fill="#1A1A1A"/>
    <rect x="18" y="52" width="4" height="4" fill="#FF9800"/>
    <rect x="16" y="56" width="4" height="4" fill="#FFEB3B"/>
    
    <!-- Front arm -->
    <rect x="38" y="34" width="4" height="4" fill="#2D2D2D"/>
    <rect x="40" y="38" width="4" height="4" fill="#1A1A1A"/>
    <rect x="42" y="42" width="4" height="4" fill="#FF6F00"/>
    <rect x="44" y="46" width="4" height="4" fill="#2D2D2D"/>
    <rect x="46" y="50" width="4" height="4" fill="#FF9800"/>
    <rect x="48" y="54" width="4" height="4" fill="#FFC107"/>
    <rect x="50" y="58" width="4" height="4" fill="#FFEB3B"/>
    
    <!-- Torso -->
    <rect x="28" y="36" width="4" height="4" fill="#2D2D2D"/>
    <rect x="32" y="36" width="4" height="4" fill="#FFC107"/>
    <rect x="28" y="40" width="4" height="4" fill="#1A1A1A"/>
    <rect x="32" y="40" width="4" height="4" fill="#FFEB3B"/>
    <rect x="30" y="44" width="4" height="4" fill="#2D2D2D"/>
    <rect x="34" y="44" width="4" height="4" fill="#FF9800"/>
    <rect x="30" y="48" width="4" height="4" fill="#FF6F00"/>
    <rect x="34" y="48" width="4" height="4" fill="#1A1A1A"/>
    <rect x="28" y="52" width="4" height="4" fill="#1A1A1A"/>
    <rect x="32" y="52" width="4" height="4" fill="#2D2D2D"/>
    
    <!-- Legs -->
    <rect x="28" y="56" width="4" height="4" fill="#2D2D2D"/>
    <rect x="32" y="56" width="4" height="4" fill="#1A1A1A"/>
    <rect x="28" y="60" width="4" height="4" fill="#FF6F00"/>
    <rect x="34" y="60" width="4" height="4" fill="#2D2D2D"/>
    <rect x="28" y="64" width="4" height="4" fill="#1A1A1A"/>
    <rect x="36" y="64" width="4" height="4" fill="#FF6F00"/>
    <rect x="28" y="68" width="4" height="4" fill="#FF9800"/>
    <rect x="38" y="68" width="4" height="4" fill="#FF9800"/>
    <rect x="26" y="72" width="4" height="4" fill="#FFC107"/>
    <rect x="30" y="72" width="4" height="4" fill="#FFEB3B"/>
    <rect x="38" y="72" width="4" height="4" fill="#FFEB3B"/>
    <rect x="42" y="72" width="4" height="4" fill="#FFC107"/>
  </g>
  
  <!-- FRAME 2: MOVE1 (x=128) - Side view moving -->
  <g transform="translate(128, 0)">
    <!-- Shadow -->
    <ellipse cx="32" cy="76" rx="8" ry="2" fill="#000000" opacity="0.5"/>
    
    <!-- Flame hair trailing back -->
    <rect x="24" y="0" width="4" height="4" fill="#FF6F00"/>
    <rect x="28" y="2" width="4" height="4" fill="#FF9800"/>
    <rect x="32" y="4" width="4" height="4" fill="#FFA726"/>
    <rect x="20" y="4" width="4" height="4" fill="#FF6F00"/>
    <rect x="24" y="6" width="4" height="4" fill="#FFA726"/>
    
    <!-- Single horn visible from side -->
    <rect x="36" y="10" width="4" height="4" fill="#1A1A1A"/>
    <rect x="40" y="14" width="4" height="4" fill="#2D2D2D"/>
    <rect x="44" y="18" width="4" height="4" fill="#1A1A1A"/>
    <rect x="48" y="22" width="4" height="4" fill="#2D2D2D"/>
    
    <!-- Head side view -->
    <rect x="28" y="8" width="4" height="4" fill="#FFC107"/>
    <rect x="32" y="8" width="4" height="4" fill="#FF9800"/>
    <rect x="28" y="12" width="4" height="4" fill="#FFEB3B"/>
    <rect x="32" y="12" width="4" height="4" fill="#FFC107"/>
    <rect x="28" y="16" width="4" height="4" fill="#2D2D2D"/>
    <rect x="32" y="16" width="4" height="4" fill="#1A1A1A"/>
    <rect x="36" y="16" width="4" height="4" fill="#2D2D2D"/>
    <rect x="32" y="20" width="4" height="4" fill="#FFEB3B"/>
    <rect x="36" y="20" width="4" height="4" fill="#1A1A1A"/>
    <rect x="34" y="24" width="4" height="4" fill="#1A1A1A"/>
    
    <!-- Neck -->
    <rect x="32" y="28" width="4" height="4" fill="#FF6F00"/>
    
    <!-- Body side view -->
    <rect x="28" y="32" width="4" height="4" fill="#1A1A1A"/>
    <rect x="32" y="32" width="4" height="4" fill="#FF9800"/>
    <rect x="36" y="32" width="4" height="4" fill="#2D2D2D"/>
    
    <!-- Arm forward -->
    <rect x="40" y="32" width="4" height="4" fill="#2D2D2D"/>
    <rect x="44" y="34" width="4" height="4" fill="#1A1A1A"/>
    <rect x="48" y="36" width="4" height="4" fill="#FF6F00"/>
    <rect x="50" y="40" width="4" height="4" fill="#2D2D2D"/>
    <rect x="52" y="44" width="4" height="4" fill="#FF9800"/>
    <rect x="54" y="48" width="4" height="4" fill="#FFC107"/>
    <rect x="56" y="52" width="4" height="4" fill="#FFEB3B"/>
    
    <!-- Torso -->
    <rect x="28" y="36" width="4" height="4" fill="#2D2D2D"/>
    <rect x="32" y="36" width="4" height="4" fill="#FFC107"/>
    <rect x="36" y="36" width="4" height="4" fill="#1A1A1A"/>
    <rect x="30" y="40" width="4" height="4" fill="#1A1A1A"/>
    <rect x="34" y="40" width="4" height="4" fill="#FFEB3B"/>
    <rect x="32" y="44" width="4" height="4" fill="#2D2D2D"/>
    <rect x="36" y="44" width="4" height="4" fill="#FF9800"/>
    <rect x="32" y="48" width="4" height="4" fill="#FF6F00"/>
    <rect x="36" y="48" width="4" height="4" fill="#1A1A1A"/>
    <rect x="30" y="52" width="4" height="4" fill="#1A1A1A"/>
    <rect x="34" y="52" width="4" height="4" fill="#2D2D2D"/>
    
    <!-- Back leg -->
    <rect x="26" y="56" width="4" height="4" fill="#2D2D2D"/>
    <rect x="24" y="60" width="4" height="4" fill="#FF6F00"/>
    <rect x="22" y="64" width="4" height="4" fill="#1A1A1A"/>
    <rect x="20" y="68" width="4" height="4" fill="#FF9800"/>
    <rect x="18" y="72" width="4" height="4" fill="#FFEB3B"/>
    
    <!-- Front leg forward -->
    <rect x="36" y="56" width="4" height="4" fill="#1A1A1A"/>
    <rect x="40" y="60" width="4" height="4" fill="#FF6F00"/>
    <rect x="44" y="64" width="4" height="4" fill="#2D2D2D"/>
    <rect x="46" y="68" width="4" height="4" fill="#FF9800"/>
    <rect x="48" y="72" width="4" height="4" fill="#FFEB3B"/>
  </g>
  
  <!-- FRAME 3: MOVE2 (x=192) - Side view moving, alternate pose -->
  <g transform="translate(192, 0)">
    <!-- Shadow -->
    <ellipse cx="32" cy="76" rx="8" ry="2" fill="#000000" opacity="0.5"/>
    
    <!-- Flame hair trailing more -->
    <rect x="20" y="0" width="4" height="4" fill="#FF6F00"/>
    <rect x="24" y="2" width="4" height="4" fill="#FF9800"/>
    <rect x="28" y="4" width="4" height="4" fill="#FFA726"/>
    <rect x="16" y="4" width="4" height="4" fill="#FF6F00"/>
    <rect x="20" y="6" width="4" height="4" fill="#FFA726"/>
    <rect x="32" y="6" width="4" height="4" fill="#FF9800"/>
    
    <!-- Horn from side -->
    <rect x="36" y="10" width="4" height="4" fill="#1A1A1A"/>
    <rect x="40" y="14" width="4" height="4" fill="#2D2D2D"/>
    <rect x="44" y="18" width="4" height="4" fill="#1A1A1A"/>
    <rect x="48" y="22" width="4" height="4" fill="#2D2D2D"/>
    
    <!-- Head side view -->
    <rect x="28" y="8" width="4" height="4" fill="#FFC107"/>
    <rect x="32" y="8" width="4" height="4" fill="#FF9800"/>
    <rect x="28" y="12" width="4" height="4" fill="#FFEB3B"/>
    <rect x="32" y="12" width="4" height="4" fill="#FFC107"/>
    <rect x="28" y="16" width="4" height="4" fill="#2D2D2D"/>
    <rect x="32" y="16" width="4" height="4" fill="#1A1A1A"/>
    <rect x="36" y="16" width="4" height="4" fill="#2D2D2D"/>
    <rect x="32" y="20" width="4" height="4" fill="#FFEB3B"/>
    <rect x="36" y="20" width="4" height="4" fill="#1A1A1A"/>
    <rect x="34" y="24" width="4" height="4" fill="#1A1A1A"/>
    
    <!-- Neck -->
    <rect x="32" y="28" width="4" height="4" fill="#FF6F00"/>
    
    <!-- Body -->
    <rect x="28" y="32" width="4" height="4" fill="#1A1A1A"/>
    <rect x="32" y="32" width="4" height="4" fill="#FF9800"/>
    <rect x="36" y="32" width="4" height="4" fill="#2D2D2D"/>
    
    <!-- Arm back -->
    <rect x="38" y="34" width="4" height="4" fill="#2D2D2D"/>
    <rect x="40" y="38" width="4" height="4" fill="#1A1A1A"/>
    <rect x="42" y="42" width="4" height="4" fill="#FF6F00"/>
    <rect x="44" y="46" width="4" height="4" fill="#2D2D2D"/>
    <rect x="44" y="50" width="4" height="4" fill="#FF9800"/>
    <rect x="42" y="54" width="4" height="4" fill="#FFC107"/>
    <rect x="40" y="58" width="4" height="4" fill="#FFEB3B"/>
    
    <!-- Torso -->
    <rect x="28" y="36" width="4" height="4" fill="#2D2D2D"/>
    <rect x="32" y="36" width="4" height="4" fill="#FFC107"/>
    <rect x="36" y="36" width="4" height="4" fill="#1A1A1A"/>
    <rect x="30" y="40" width="4" height="4" fill="#1A1A1A"/>
    <rect x="34" y="40" width="4" height="4" fill="#FFEB3B"/>
    <rect x="32" y="44" width="4" height="4" fill="#2D2D2D"/>
    <rect x="36" y="44" width="4" height="4" fill="#FF9800"/>
    <rect x="32" y="48" width="4" height="4" fill="#FF6F00"/>
    <rect x="36" y="48" width="4" height="4" fill="#1A1A1A"/>
    <rect x="30" y="52" width="4" height="4" fill="#1A1A1A"/>
    <rect x="34" y="52" width="4" height="4" fill="#2D2D2D"/>
    
    <!-- Front leg back -->
    <rect x="38" y="56" width="4" height="4" fill="#1A1A1A"/>
    <rect x="36" y="60" width="4" height="4" fill="#FF6F00"/>
    <rect x="34" y="64" width="4" height="4" fill="#2D2D2D"/>
    <rect x="32" y="68" width="4" height="4" fill="#FF9800"/>
    <rect x="30" y="72" width="4" height="4" fill="#FFEB3B"/>
    
    <!-- Back leg forward -->
    <rect x="28" y="56" width="4" height="4" fill="#2D2D2D"/>
    <rect x="32" y="60" width="4" height="4" fill="#FF6F00"/>
    <rect x="36" y="64" width="4" height="4" fill="#1A1A1A"/>
    <rect x="40" y="68" width="4" height="4" fill="#FF9800"/>
    <rect x="44" y="72" width="4" height="4" fill="#FFEB3B"/>
  </g>
  
  <!-- FRAME 4: DEATH1 (x=256) - Starting to collapse -->
  <g transform="translate(256, 0)">
    <!-- Shadow shrinking -->
    <ellipse cx="32" cy="76" rx="8" ry="2" fill="#000000" opacity="0.4"/>
    
    <!-- Flames flickering out -->
    <rect x="28" y="4" width="4" height="4" fill="#FF6F00"/>
    <rect x="32" y="6" width="4" height="4" fill="#FF9800"/>
    
    <!-- Horns cracking -->
    <rect x="18" y="14" width="4" height="4" fill="#1A1A1A"/>
    <rect x="14" y="18" width="4" height="4" fill="#2D2D2D"/>
    <rect x="42" y="14" width="4" height="4" fill="#1A1A1A"/>
    <rect x="46" y="18" width="4" height="4" fill="#2D2D2D"/>
    
    <!-- Head tilting -->
    <rect x="28" y="10" width="4" height="4" fill="#FFC107"/>
    <rect x="32" y="10" width="4" height="4" fill="#FF9800"/>
    <rect x="26" y="14" width="4" height="4" fill="#FFEB3B"/>
    <rect x="30" y="14" width="4" height="4" fill="#FFC107"/>
    <rect x="34" y="14" width="4" height="4" fill="#FF9800"/>
    <rect x="24" y="18" width="4" height="4" fill="#1A1A1A"/>
    <rect x="28" y="18" width="4" height="4" fill="#2D2D2D"/>
    <rect x="32" y="18" width="4" height="4" fill="#FFEB3B"/>
    <rect x="36" y="18" width="4" height="4" fill="#1A1A1A"/>
    <rect x="28" y="22" width="4" height="4" fill="#1A1A1A"/>
    <rect x="32" y="22" width="4" height="4" fill="#2D2D2D"/>
    
    <!-- Body collapsing -->
    <rect x="28" y="26" width="4" height="4" fill="#FF6F00"/>
    <rect x="32" y="26" width="4" height="4" fill="#2D2D2D"/>
    <rect x="26" y="30" width="4" height="4" fill="#1A1A1A"/>
    <rect x="30" y="30" width="4" height="4" fill="#FF9800"/>
    <rect x="34" y="30" width="4" height="4" fill="#1A1A1A"/>
    <rect x="28" y="34" width="4" height="4" fill="#2D2D2D"/>
    <rect x="32" y="34" width="4" height="4" fill="#FFEB3B"/>
    <rect x="28" y="38" width="4" height="4" fill="#1A1A1A"/>
    <rect x="32" y="38" width="4" height="4" fill="#FFC107"/>
    <rect x="26" y="42" width="4" height="4" fill="#2D2D2D"/>
    <rect x="30" y="42" width="4" height="4" fill="#FF9800"/>
    <rect x="34" y="42" width="4" height="4" fill="#2D2D2D"/>
    
    <!-- Arms falling -->
    <rect x="18" y="32" width="4" height="4" fill="#2D2D2D"/>
    <rect x="16" y="36" width="4" height="4" fill="#FF6F00"/>
    <rect x="14" y="42" width="4" height="4" fill="#FFC107"/>
    <rect x="42" y="32" width="4" height="4" fill="#2D2D2D"/>
    <rect x="44" y="36" width="4" height="4" fill="#FF6F00"/>
    <rect x="46" y="42" width="4" height="4" fill="#FFC107"/>
    
    <!-- Legs buckling -->
    <rect x="24" y="46" width="4" height="4" fill="#1A1A1A"/>
    <rect x="28" y="48" width="4" height="4" fill="#2D2D2D"/>
    <rect x="32" y="48" width="4" height="4" fill="#2D2D2D"/>
    <rect x="36" y="46" width="4" height="4" fill="#1A1A1A"/>
    <rect x="24" y="52" width="4" height="4" fill="#FF6F00"/>
    <rect x="36" y="52" width="4" height="4" fill="#FF6F00"/>
    <rect x="22" y="58" width="4" height="4" fill="#FF9800"/>
    <rect x="38" y="58" width="4" height="4" fill="#FF9800"/>
    <rect x="20" y="64" width="4" height="4" fill="#FFC107"/>
    <rect x="40" y="64" width="4" height="4" fill="#FFC107"/>
  </g>
  
  <!-- FRAME 5: DEATH2 (x=320) - Mostly collapsed -->
  <g transform="translate(320, 0)">
    <!-- Shadow small -->
    <ellipse cx="32" cy="76" rx="6" ry="2" fill="#000000" opacity="0.3"/>
    
    <!-- Small flame wisps -->
    <rect x="26" y="20" width="4" height="4" fill="#FF6F00"/>
    <rect x="34" y="18" width="4" height="4" fill="#FF9800"/>
    
    <!-- Horn fragments -->
    <rect x="16" y="28" width="4" height="4" fill="#1A1A1A"/>
    <rect x="44" y="26" width="4" height="4" fill="#2D2D2D"/>
    
    <!-- Head piece -->
    <rect x="28" y="24" width="4" height="4" fill="#FFC107"/>
    <rect x="32" y="24" width="4" height="4" fill="#2D2D2D"/>
    <rect x="28" y="28" width="4" height="4" fill="#FFEB3B"/>
    <rect x="32" y="28" width="4" height="4" fill="#1A1A1A"/>
    
    <!-- Torso remains -->
    <rect x="26" y="32" width="4" height="4" fill="#1A1A1A"/>
    <rect x="30" y="32" width="4" height="4" fill="#FF9800"/>
    <rect x="34" y="32" width="4" height="4" fill="#2D2D2D"/>
    <rect x="28" y="36" width="4" height="4" fill="#2D2D2D"/>
    <rect x="32" y="36" width="4" height="4" fill="#FFEB3B"/>
    <rect x="28" y="40" width="4" height="4" fill="#FFC107"/>
    <rect x="32" y="40" width="4" height="4" fill="#1A1A1A"/>
    
    <!-- Scattered pieces -->
    <rect x="18" y="38" width="4" height="4" fill="#FF6F00"/>
    <rect x="42" y="36" width="4" height="4" fill="#FF6F00"/>
    <rect x="14" y="48" width="4" height="4" fill="#FFC107"/>
    <rect x="46" y="46" width="4" height="4" fill="#FFC107"/>
    
    <!-- Lower remains -->
    <rect x="24" y="44" width="4" height="4" fill="#1A1A1A"/>
    <rect x="28" y="46" width="4" height="4" fill="#2D2D2D"/>
    <rect x="32" y="46" width="4" height="4" fill="#2D2D2D"/>
    <rect x="36" y="44" width="4" height="4" fill="#1A1A1A"/>
    <rect x="26" y="52" width="4" height="4" fill="#FF9800"/>
    <rect x="34" y="52" width="4" height="4" fill="#FF9800"/>
    <rect x="24" y="58" width="4" height="4" fill="#FFC107"/>
    <rect x="36" y="58" width="4" height="4" fill="#FFC107"/>
    <rect x="22" y="64" width="4" height="4" fill="#FFEB3B"/>
    <rect x="38" y="64" width="4" height="4" fill="#FFEB3B"/>
  </g>
  
  <!-- FRAME 6: DEATH3 (x=384) - Nearly gone, embers -->
  <g transform="translate(384, 0)">
    <!-- Tiny shadow -->
    <ellipse cx="32" cy="76" rx="4" ry="1" fill="#000000" opacity="0.2"/>
    
    <!-- Floating embers -->
    <rect x="24" y="28" width="4" height="4" fill="#FF6F00"/>
    <rect x="36" y="24" width="4" height="4" fill="#FF9800"/>
    <rect x="20" y="36" width="4" height="4" fill="#FFC107"/>
    <rect x="40" y="32" width="4" height="4" fill="#FFC107"/>
    
    <!-- Core remains -->
    <rect x="28" y="40" width="4" height="4" fill="#2D2D2D"/>
    <rect x="32" y="40" width="4" height="4" fill="#1A1A1A"/>
    <rect x="28" y="44" width="4" height="4" fill="#FFEB3B"/>
    <rect x="32" y="44" width="4" height="4" fill="#FFC107"/>
    <rect x="30" y="48" width="4" height="4" fill="#2D2D2D"/>
    
    <!-- Scattered ember pieces -->
    <rect x="18" y="50" width="4" height="4" fill="#FF6F00"/>
    <rect x="42" y="48" width="4" height="4" fill="#FF6F00"/>
    <rect x="24" y="56" width="4" height="4" fill="#FF9800"/>
    <rect x="36" y="54" width="4" height="4" fill="#FF9800"/>
    <rect x="28" y="60" width="4" height="4" fill="#FFC107"/>
    <rect x="32" y="58" width="4" height="4" fill="#FFC107"/>
    <rect x="26" y="66" width="4" height="4" fill="#FFEB3B"/>
    <rect x="34" y="64" width="4" height="4" fill="#FFEB3B"/>
  </g>
  
  <!-- FRAME 7: ASH PILE (x=448) -->
  <g transform="translate(448, 0)">
    <!-- Ash pile -->
    <rect x="20" y="64" width="4" height="4" fill="#424242"/>
    <rect x="24" y="64" width="4" height="4" fill="#616161"/>
    <rect x="28" y="64" width="4" height="4" fill="#757575"/>
    <rect x="32" y="64" width="4" height="4" fill="#757575"/>
    <rect x="36" y="64" width="4" height="4" fill="#616161"/>
    <rect x="40" y="64" width="4" height="4" fill="#424242"/>
    
    <rect x="16" y="68" width="4" height="4" fill="#424242"/>
    <rect x="20" y="68" width="4" height="4" fill="#616161"/>
    <rect x="24" y="68" width="4" height="4" fill="#757575"/>
    <rect x="28" y="68" width="4" height="4" fill="#9E9E9E"/>
    <rect x="32" y="68" width="4" height="4" fill="#9E9E9E"/>
    <rect x="36" y="68" width="4" height="4" fill="#757575"/>
    <rect x="40" y="68" width="4" height="4" fill="#616161"/>
    <rect x="44" y="68" width="4" height="4" fill="#424242"/>
    
    <rect x="20" y="72" width="4" height="4" fill="#424242"/>
    <rect x="24" y="72" width="4" height="4" fill="#616161"/>
    <rect x="28" y="72" width="4" height="4" fill="#757575"/>
    <rect x="32" y="72" width="4" height="4" fill="#757575"/>
    <rect x="36" y="72" width="4" height="4" fill="#616161"/>
    <rect x="40" y="72" width="4" height="4" fill="#424242"/>
    
    <!-- Glowing embers in ash -->
    <rect x="26" y="66" width="4" height="4" fill="#FF5722"/>
    <rect x="34" y="66" width="4" height="4" fill="#BF360C"/>
    <rect x="30" y="70" width="4" height="4" fill="#FF9800"/>
    <rect x="24" y="70" width="4" height="4" fill="#E64A19"/>
    <rect x="36" y="70" width="4" height="4" fill="#BF360C"/>
    
    <!-- Smoke wisps -->
    <rect x="28" y="56" width="4" height="4" fill="#757575" opacity="0.4"/>
    <rect x="32" y="52" width="4" height="4" fill="#616161" opacity="0.3"/>
    <rect x="30" y="48" width="4" height="4" fill="#424242" opacity="0.2"/>
  </g>
</svg>
