<svg xmlns="http://www.w3.org/2000/svg" viewBox="0 0 512 96" width="1024" height="192">
  <!-- 
    FLAME FIEND SPRITE SHEET - Tier 2 - THICK LIMBS VERSION
    8 frames at 64x96 each
    Layout: [idle] [turn] [move1] [move2] [death1] [death2] [death3] [ash]
  -->
  
  <!-- FRAME 0: IDLE (x=0) -->
  <g transform="translate(0, 0)">
    <ellipse cx="32" cy="92" rx="14" ry="3" fill="#000000" opacity="0.5"/>
    <!-- Flames -->
    <rect x="28" y="0" width="4" height="4" fill="#FF6F00"/>
    <rect x="32" y="0" width="4" height="4" fill="#FF6F00"/>
    <rect x="28" y="4" width="4" height="4" fill="#FFA726"/>
    <rect x="32" y="4" width="4" height="4" fill="#FF9800"/>
    <rect x="20" y="4" width="4" height="4" fill="#FF6F00"/>
    <rect x="40" y="4" width="4" height="4" fill="#FF6F00"/>
    <rect x="24" y="6" width="4" height="4" fill="#FF9800"/>
    <rect x="36" y="6" width="4" height="4" fill="#FF9800"/>
    <rect x="16" y="8" width="4" height="4" fill="#FF6F00"/>
    <rect x="44" y="8" width="4" height="4" fill="#FF6F00"/>
    <!-- Horns -->
    <rect x="16" y="12" width="4" height="4" fill="#1A1A1A"/>
    <rect x="12" y="16" width="4" height="4" fill="#2D2D2D"/>
    <rect x="8" y="16" width="4" height="4" fill="#1A1A1A"/>
    <rect x="8" y="20" width="4" height="4" fill="#2D2D2D"/>
    <rect x="4" y="20" width="4" height="4" fill="#1A1A1A"/>
    <rect x="44" y="12" width="4" height="4" fill="#1A1A1A"/>
    <rect x="48" y="16" width="4" height="4" fill="#2D2D2D"/>
    <rect x="52" y="16" width="4" height="4" fill="#1A1A1A"/>
    <rect x="52" y="20" width="4" height="4" fill="#2D2D2D"/>
    <rect x="56" y="20" width="4" height="4" fill="#1A1A1A"/>
    <!-- Head -->
    <rect x="24" y="8" width="4" height="4" fill="#FFEB3B"/>
    <rect x="28" y="8" width="4" height="4" fill="#FFF176"/>
    <rect x="32" y="8" width="4" height="4" fill="#FFF176"/>
    <rect x="36" y="8" width="4" height="4" fill="#FFEB3B"/>
    <rect x="20" y="12" width="4" height="4" fill="#FF9800"/>
    <rect x="24" y="12" width="4" height="4" fill="#FFC107"/>
    <rect x="28" y="12" width="4" height="4" fill="#FFEB3B"/>
    <rect x="32" y="12" width="4" height="4" fill="#FFEB3B"/>
    <rect x="36" y="12" width="4" height="4" fill="#FFC107"/>
    <rect x="40" y="12" width="4" height="4" fill="#FF9800"/>
    <rect x="16" y="16" width="4" height="4" fill="#1A1A1A"/>
    <rect x="20" y="16" width="4" height="4" fill="#2D2D2D"/>
    <rect x="24" y="16" width="4" height="4" fill="#3D3D3D"/>
    <rect x="28" y="16" width="4" height="4" fill="#2D2D2D"/>
    <rect x="32" y="16" width="4" height="4" fill="#2D2D2D"/>
    <rect x="36" y="16" width="4" height="4" fill="#3D3D3D"/>
    <rect x="40" y="16" width="4" height="4" fill="#2D2D2D"/>
    <rect x="44" y="16" width="4" height="4" fill="#1A1A1A"/>
    <rect x="16" y="20" width="4" height="4" fill="#2D2D2D"/>
    <rect x="20" y="20" width="4" height="4" fill="#1A1A1A"/>
    <rect x="24" y="20" width="4" height="4" fill="#FFEB3B"/>
    <rect x="28" y="20" width="4" height="4" fill="#FFC107"/>
    <rect x="32" y="20" width="4" height="4" fill="#FFC107"/>
    <rect x="36" y="20" width="4" height="4" fill="#FFEB3B"/>
    <rect x="40" y="20" width="4" height="4" fill="#1A1A1A"/>
    <rect x="44" y="20" width="4" height="4" fill="#2D2D2D"/>
    <rect x="20" y="24" width="4" height="4" fill="#2D2D2D"/>
    <rect x="24" y="24" width="4" height="4" fill="#1A1A1A"/>
    <rect x="28" y="24" width="4" height="4" fill="#FF6F00"/>
    <rect x="32" y="24" width="4" height="4" fill="#FF6F00"/>
    <rect x="36" y="24" width="4" height="4" fill="#1A1A1A"/>
    <rect x="40" y="24" width="4" height="4" fill="#2D2D2D"/>
    <rect x="28" y="28" width="4" height="4" fill="#2D2D2D"/>
    <rect x="32" y="28" width="4" height="4" fill="#2D2D2D"/>
    <!-- Neck -->
    <rect x="28" y="32" width="4" height="4" fill="#FF9800"/>
    <rect x="32" y="32" width="4" height="4" fill="#FF6F00"/>
    <!-- Shoulders -->
    <rect x="12" y="36" width="4" height="4" fill="#1A1A1A"/>
    <rect x="16" y="36" width="4" height="4" fill="#2D2D2D"/>
    <rect x="20" y="36" width="4" height="4" fill="#FF6F00"/>
    <rect x="24" y="36" width="4" height="4" fill="#1A1A1A"/>
    <rect x="28" y="36" width="4" height="4" fill="#FFC107"/>
    <rect x="32" y="36" width="4" height="4" fill="#FFC107"/>
    <rect x="36" y="36" width="4" height="4" fill="#1A1A1A"/>
    <rect x="40" y="36" width="4" height="4" fill="#FF6F00"/>
    <rect x="44" y="36" width="4" height="4" fill="#2D2D2D"/>
    <rect x="48" y="36" width="4" height="4" fill="#1A1A1A"/>
    <!-- Arms -->
    <rect x="8" y="40" width="4" height="4" fill="#2D2D2D"/>
    <rect x="12" y="40" width="4" height="4" fill="#1A1A1A"/>
    <rect x="8" y="44" width="4" height="4" fill="#1A1A1A"/>
    <rect x="12" y="44" width="4" height="4" fill="#FF6F00"/>
    <rect x="8" y="48" width="4" height="4" fill="#2D2D2D"/>
    <rect x="12" y="48" width="4" height="4" fill="#1A1A1A"/>
    <rect x="8" y="52" width="4" height="4" fill="#1A1A1A"/>
    <rect x="12" y="52" width="4" height="4" fill="#FF9800"/>
    <rect x="8" y="56" width="4" height="4" fill="#2D2D2D"/>
    <rect x="12" y="56" width="4" height="4" fill="#1A1A1A"/>
    <rect x="4" y="60" width="4" height="4" fill="#FFC107"/>
    <rect x="8" y="60" width="4" height="4" fill="#FF9800"/>
    <rect x="0" y="64" width="4" height="4" fill="#FFEB3B"/>
    <rect x="8" y="64" width="4" height="4" fill="#FFC107"/>
    <rect x="16" y="64" width="4" height="4" fill="#FFEB3B"/>
    <rect x="48" y="40" width="4" height="4" fill="#1A1A1A"/>
    <rect x="52" y="40" width="4" height="4" fill="#2D2D2D"/>
    <rect x="48" y="44" width="4" height="4" fill="#FF6F00"/>
    <rect x="52" y="44" width="4" height="4" fill="#1A1A1A"/>
    <rect x="48" y="48" width="4" height="4" fill="#1A1A1A"/>
    <rect x="52" y="48" width="4" height="4" fill="#2D2D2D"/>
    <rect x="48" y="52" width="4" height="4" fill="#FF9800"/>
    <rect x="52" y="52" width="4" height="4" fill="#1A1A1A"/>
    <rect x="48" y="56" width="4" height="4" fill="#1A1A1A"/>
    <rect x="52" y="56" width="4" height="4" fill="#2D2D2D"/>
    <rect x="52" y="60" width="4" height="4" fill="#FF9800"/>
    <rect x="56" y="60" width="4" height="4" fill="#FFC107"/>
    <rect x="44" y="64" width="4" height="4" fill="#FFEB3B"/>
    <rect x="52" y="64" width="4" height="4" fill="#FFC107"/>
    <rect x="60" y="64" width="4" height="4" fill="#FFEB3B"/>
    <!-- Torso -->
    <rect x="16" y="40" width="4" height="4" fill="#2D2D2D"/>
    <rect x="20" y="40" width="4" height="4" fill="#1A1A1A"/>
    <rect x="24" y="40" width="4" height="4" fill="#FF9800"/>
    <rect x="28" y="40" width="4" height="4" fill="#FFEB3B"/>
    <rect x="32" y="40" width="4" height="4" fill="#FFEB3B"/>
    <rect x="36" y="40" width="4" height="4" fill="#FF9800"/>
    <rect x="40" y="40" width="4" height="4" fill="#1A1A1A"/>
    <rect x="44" y="40" width="4" height="4" fill="#2D2D2D"/>
    <rect x="16" y="44" width="4" height="4" fill="#1A1A1A"/>
    <rect x="20" y="44" width="4" height="4" fill="#2D2D2D"/>
    <rect x="24" y="44" width="4" height="4" fill="#1A1A1A"/>
    <rect x="28" y="44" width="4" height="4" fill="#FFF176"/>
    <rect x="32" y="44" width="4" height="4" fill="#FFF176"/>
    <rect x="36" y="44" width="4" height="4" fill="#1A1A1A"/>
    <rect x="40" y="44" width="4" height="4" fill="#2D2D2D"/>
    <rect x="44" y="44" width="4" height="4" fill="#1A1A1A"/>
    <rect x="20" y="48" width="4" height="4" fill="#1A1A1A"/>
    <rect x="24" y="48" width="4" height="4" fill="#FF6F00"/>
    <rect x="28" y="48" width="4" height="4" fill="#FFC107"/>
    <rect x="32" y="48" width="4" height="4" fill="#FFC107"/>
    <rect x="36" y="48" width="4" height="4" fill="#FF6F00"/>
    <rect x="40" y="48" width="4" height="4" fill="#1A1A1A"/>
    <rect x="20" y="52" width="4" height="4" fill="#2D2D2D"/>
    <rect x="24" y="52" width="4" height="4" fill="#1A1A1A"/>
    <rect x="28" y="52" width="4" height="4" fill="#FF9800"/>
    <rect x="32" y="52" width="4" height="4" fill="#FF9800"/>
    <rect x="36" y="52" width="4" height="4" fill="#1A1A1A"/>
    <rect x="40" y="52" width="4" height="4" fill="#2D2D2D"/>
    <rect x="20" y="56" width="4" height="4" fill="#1A1A1A"/>
    <rect x="24" y="56" width="4" height="4" fill="#2D2D2D"/>
    <rect x="28" y="56" width="4" height="4" fill="#1A1A1A"/>
    <rect x="32" y="56" width="4" height="4" fill="#1A1A1A"/>
    <rect x="36" y="56" width="4" height="4" fill="#2D2D2D"/>
    <rect x="40" y="56" width="4" height="4" fill="#1A1A1A"/>
    <!-- Legs -->
    <rect x="20" y="60" width="4" height="4" fill="#2D2D2D"/>
    <rect x="24" y="60" width="4" height="4" fill="#1A1A1A"/>
    <rect x="20" y="64" width="4" height="4" fill="#FF6F00"/>
    <rect x="24" y="64" width="4" height="4" fill="#2D2D2D"/>
    <rect x="20" y="68" width="4" height="4" fill="#1A1A1A"/>
    <rect x="24" y="68" width="4" height="4" fill="#FF9800"/>
    <rect x="20" y="72" width="4" height="4" fill="#2D2D2D"/>
    <rect x="24" y="72" width="4" height="4" fill="#1A1A1A"/>
    <rect x="20" y="76" width="4" height="4" fill="#FF6F00"/>
    <rect x="24" y="76" width="4" height="4" fill="#2D2D2D"/>
    <rect x="16" y="80" width="4" height="4" fill="#FFC107"/>
    <rect x="20" y="80" width="4" height="4" fill="#FF9800"/>
    <rect x="24" y="80" width="4" height="4" fill="#FFC107"/>
    <rect x="12" y="84" width="4" height="4" fill="#FFEB3B"/>
    <rect x="20" y="84" width="4" height="4" fill="#FFC107"/>
    <rect x="28" y="84" width="4" height="4" fill="#FFEB3B"/>
    <rect x="36" y="60" width="4" height="4" fill="#1A1A1A"/>
    <rect x="40" y="60" width="4" height="4" fill="#2D2D2D"/>
    <rect x="36" y="64" width="4" height="4" fill="#2D2D2D"/>
    <rect x="40" y="64" width="4" height="4" fill="#FF6F00"/>
    <rect x="36" y="68" width="4" height="4" fill="#FF9800"/>
    <rect x="40" y="68" width="4" height="4" fill="#1A1A1A"/>
    <rect x="36" y="72" width="4" height="4" fill="#1A1A1A"/>
    <rect x="40" y="72" width="4" height="4" fill="#2D2D2D"/>
    <rect x="36" y="76" width="4" height="4" fill="#2D2D2D"/>
    <rect x="40" y="76" width="4" height="4" fill="#FF6F00"/>
    <rect x="36" y="80" width="4" height="4" fill="#FFC107"/>
    <rect x="40" y="80" width="4" height="4" fill="#FF9800"/>
    <rect x="44" y="80" width="4" height="4" fill="#FFC107"/>
    <rect x="32" y="84" width="4" height="4" fill="#FFEB3B"/>
    <rect x="40" y="84" width="4" height="4" fill="#FFC107"/>
    <rect x="48" y="84" width="4" height="4" fill="#FFEB3B"/>
  </g>
  
  <!-- FRAME 1: TURN (x=64) - use idle structure but angled -->
  <g transform="translate(64, 0)">
    <ellipse cx="34" cy="92" rx="12" ry="3" fill="#000000" opacity="0.5"/>
    <rect x="30" y="0" width="4" height="4" fill="#FF6F00"/>
    <rect x="34" y="2" width="4" height="4" fill="#FF9800"/>
    <rect x="26" y="4" width="4" height="4" fill="#FFA726"/>
    <rect x="22" y="6" width="4" height="4" fill="#FF6F00"/>
    <rect x="18" y="12" width="4" height="4" fill="#1A1A1A"/>
    <rect x="14" y="16" width="4" height="4" fill="#2D2D2D"/>
    <rect x="10" y="20" width="4" height="4" fill="#1A1A1A"/>
    <rect x="44" y="14" width="4" height="4" fill="#1A1A1A"/>
    <rect x="48" y="18" width="4" height="4" fill="#2D2D2D"/>
    <rect x="52" y="22" width="4" height="4" fill="#1A1A1A"/>
    <rect x="26" y="8" width="4" height="4" fill="#FFEB3B"/>
    <rect x="30" y="8" width="4" height="4" fill="#FFF176"/>
    <rect x="34" y="10" width="4" height="4" fill="#FFC107"/>
    <rect x="24" y="12" width="4" height="4" fill="#FFC107"/>
    <rect x="28" y="12" width="4" height="4" fill="#FFEB3B"/>
    <rect x="32" y="14" width="4" height="4" fill="#FFC107"/>
    <rect x="22" y="16" width="4" height="4" fill="#1A1A1A"/>
    <rect x="26" y="16" width="4" height="4" fill="#2D2D2D"/>
    <rect x="30" y="18" width="4" height="4" fill="#2D2D2D"/>
    <rect x="34" y="18" width="4" height="4" fill="#1A1A1A"/>
    <rect x="26" y="20" width="4" height="4" fill="#2D2D2D"/>
    <rect x="30" y="20" width="4" height="4" fill="#FFEB3B"/>
    <rect x="34" y="22" width="4" height="4" fill="#FFC107"/>
    <rect x="28" y="24" width="4" height="4" fill="#1A1A1A"/>
    <rect x="32" y="26" width="4" height="4" fill="#FF6F00"/>
    <rect x="30" y="30" width="4" height="4" fill="#2D2D2D"/>
    <rect x="32" y="34" width="4" height="4" fill="#FF9800"/>
    <rect x="36" y="34" width="4" height="4" fill="#FF6F00"/>
    <!-- Thick body -->
    <rect x="24" y="38" width="4" height="4" fill="#1A1A1A"/>
    <rect x="28" y="38" width="4" height="4" fill="#2D2D2D"/>
    <rect x="32" y="38" width="4" height="4" fill="#FFC107"/>
    <rect x="36" y="38" width="4" height="4" fill="#FF9800"/>
    <rect x="40" y="40" width="4" height="4" fill="#2D2D2D"/>
    <!-- Back arm 2 wide -->
    <rect x="16" y="42" width="4" height="4" fill="#2D2D2D"/>
    <rect x="20" y="42" width="4" height="4" fill="#1A1A1A"/>
    <rect x="14" y="46" width="4" height="4" fill="#1A1A1A"/>
    <rect x="18" y="46" width="4" height="4" fill="#FF6F00"/>
    <rect x="12" y="50" width="4" height="4" fill="#2D2D2D"/>
    <rect x="16" y="50" width="4" height="4" fill="#FF9800"/>
    <rect x="10" y="54" width="4" height="4" fill="#FF9800"/>
    <rect x="14" y="54" width="4" height="4" fill="#2D2D2D"/>
    <rect x="8" y="58" width="4" height="4" fill="#FFC107"/>
    <rect x="12" y="58" width="4" height="4" fill="#FF9800"/>
    <rect x="4" y="62" width="4" height="4" fill="#FFEB3B"/>
    <rect x="12" y="62" width="4" height="4" fill="#FFEB3B"/>
    <!-- Front arm 2 wide -->
    <rect x="42" y="42" width="4" height="4" fill="#2D2D2D"/>
    <rect x="46" y="42" width="4" height="4" fill="#1A1A1A"/>
    <rect x="44" y="46" width="4" height="4" fill="#1A1A1A"/>
    <rect x="48" y="46" width="4" height="4" fill="#FF6F00"/>
    <rect x="46" y="50" width="4" height="4" fill="#2D2D2D"/>
    <rect x="50" y="50" width="4" height="4" fill="#FF9800"/>
    <rect x="48" y="54" width="4" height="4" fill="#FF9800"/>
    <rect x="52" y="54" width="4" height="4" fill="#2D2D2D"/>
    <rect x="50" y="58" width="4" height="4" fill="#FFC107"/>
    <rect x="54" y="58" width="4" height="4" fill="#FF9800"/>
    <rect x="52" y="62" width="4" height="4" fill="#FFEB3B"/>
    <rect x="60" y="62" width="4" height="4" fill="#FFEB3B"/>
    <!-- Torso -->
    <rect x="26" y="42" width="4" height="4" fill="#2D2D2D"/>
    <rect x="30" y="42" width="4" height="4" fill="#FF9800"/>
    <rect x="34" y="44" width="4" height="4" fill="#FFEB3B"/>
    <rect x="38" y="46" width="4" height="4" fill="#FFC107"/>
    <rect x="28" y="48" width="4" height="4" fill="#1A1A1A"/>
    <rect x="32" y="48" width="4" height="4" fill="#FFF176"/>
    <rect x="36" y="50" width="4" height="4" fill="#FF9800"/>
    <rect x="30" y="54" width="4" height="4" fill="#2D2D2D"/>
    <rect x="34" y="56" width="4" height="4" fill="#1A1A1A"/>
    <!-- Legs 2 wide -->
    <rect x="24" y="60" width="4" height="4" fill="#2D2D2D"/>
    <rect x="28" y="60" width="4" height="4" fill="#1A1A1A"/>
    <rect x="22" y="64" width="4" height="4" fill="#1A1A1A"/>
    <rect x="26" y="64" width="4" height="4" fill="#FF6F00"/>
    <rect x="20" y="68" width="4" height="4" fill="#FF6F00"/>
    <rect x="24" y="68" width="4" height="4" fill="#2D2D2D"/>
    <rect x="18" y="72" width="4" height="4" fill="#2D2D2D"/>
    <rect x="22" y="72" width="4" height="4" fill="#FF9800"/>
    <rect x="16" y="78" width="4" height="4" fill="#FFC107"/>
    <rect x="20" y="78" width="4" height="4" fill="#FF9800"/>
    <rect x="14" y="84" width="4" height="4" fill="#FFEB3B"/>
    <rect x="22" y="84" width="4" height="4" fill="#FFEB3B"/>
    <rect x="36" y="60" width="4" height="4" fill="#1A1A1A"/>
    <rect x="40" y="60" width="4" height="4" fill="#2D2D2D"/>
    <rect x="38" y="64" width="4" height="4" fill="#FF6F00"/>
    <rect x="42" y="64" width="4" height="4" fill="#1A1A1A"/>
    <rect x="40" y="68" width="4" height="4" fill="#2D2D2D"/>
    <rect x="44" y="68" width="4" height="4" fill="#FF6F00"/>
    <rect x="42" y="72" width="4" height="4" fill="#FF9800"/>
    <rect x="46" y="72" width="4" height="4" fill="#2D2D2D"/>
    <rect x="44" y="78" width="4" height="4" fill="#FFC107"/>
    <rect x="48" y="78" width="4" height="4" fill="#FF9800"/>
    <rect x="44" y="84" width="4" height="4" fill="#FFEB3B"/>
    <rect x="52" y="84" width="4" height="4" fill="#FFEB3B"/>
  </g>
  
  <!-- FRAME 2: MOVE1 (x=128) - Side view THICK -->
  <g transform="translate(128, 0)">
    <ellipse cx="32" cy="92" rx="10" ry="2" fill="#000000" opacity="0.5"/>
    <!-- Flames trailing -->
    <rect x="18" y="0" width="4" height="4" fill="#FF6F00"/>
    <rect x="22" y="2" width="4" height="4" fill="#FF9800"/>
    <rect x="26" y="4" width="4" height="4" fill="#FFA726"/>
    <rect x="14" y="4" width="4" height="4" fill="#FF6F00"/>
    <rect x="30" y="6" width="4" height="4" fill="#FF9800"/>
    <rect x="18" y="8" width="4" height="4" fill="#FFA726"/>
    <!-- Horn -->
    <rect x="40" y="12" width="4" height="4" fill="#1A1A1A"/>
    <rect x="44" y="16" width="4" height="4" fill="#2D2D2D"/>
    <rect x="48" y="20" width="4" height="4" fill="#1A1A1A"/>
    <rect x="52" y="24" width="4" height="4" fill="#2D2D2D"/>
    <!-- Head 2 wide -->
    <rect x="26" y="8" width="4" height="4" fill="#FFEB3B"/>
    <rect x="30" y="8" width="4" height="4" fill="#FFF176"/>
    <rect x="34" y="10" width="4" height="4" fill="#FFC107"/>
    <rect x="26" y="12" width="4" height="4" fill="#FFC107"/>
    <rect x="30" y="12" width="4" height="4" fill="#FFEB3B"/>
    <rect x="34" y="14" width="4" height="4" fill="#FF9800"/>
    <rect x="26" y="16" width="4" height="4" fill="#2D2D2D"/>
    <rect x="30" y="16" width="4" height="4" fill="#1A1A1A"/>
    <rect x="34" y="18" width="4" height="4" fill="#2D2D2D"/>
    <rect x="30" y="20" width="4" height="4" fill="#FFEB3B"/>
    <rect x="34" y="22" width="4" height="4" fill="#1A1A1A"/>
    <rect x="32" y="26" width="4" height="4" fill="#1A1A1A"/>
    <rect x="36" y="28" width="4" height="4" fill="#2D2D2D"/>
    <rect x="34" y="32" width="4" height="4" fill="#FF6F00"/>
    <!-- Neck 2 wide -->
    <rect x="32" y="36" width="4" height="4" fill="#FF9800"/>
    <rect x="36" y="36" width="4" height="4" fill="#FF6F00"/>
    <!-- Body 2 wide -->
    <rect x="28" y="40" width="4" height="4" fill="#1A1A1A"/>
    <rect x="32" y="40" width="4" height="4" fill="#2D2D2D"/>
    <rect x="36" y="40" width="4" height="4" fill="#FFC107"/>
    <rect x="40" y="40" width="4" height="4" fill="#FF9800"/>
    <!-- Arm forward 2 wide -->
    <rect x="44" y="38" width="4" height="4" fill="#2D2D2D"/>
    <rect x="48" y="38" width="4" height="4" fill="#1A1A1A"/>
    <rect x="46" y="42" width="4" height="4" fill="#1A1A1A"/>
    <rect x="50" y="42" width="4" height="4" fill="#FF6F00"/>
    <rect x="48" y="46" width="4" height="4" fill="#2D2D2D"/>
    <rect x="52" y="46" width="4" height="4" fill="#FF9800"/>
    <rect x="50" y="50" width="4" height="4" fill="#FF9800"/>
    <rect x="54" y="50" width="4" height="4" fill="#2D2D2D"/>
    <rect x="52" y="54" width="4" height="4" fill="#FFC107"/>
    <rect x="56" y="54" width="4" height="4" fill="#FF9800"/>
    <rect x="54" y="58" width="4" height="4" fill="#FFEB3B"/>
    <rect x="58" y="58" width="4" height="4" fill="#FFC107"/>
    <!-- Torso 2 wide -->
    <rect x="26" y="44" width="4" height="4" fill="#2D2D2D"/>
    <rect x="30" y="44" width="4" height="4" fill="#1A1A1A"/>
    <rect x="34" y="44" width="4" height="4" fill="#FF9800"/>
    <rect x="38" y="44" width="4" height="4" fill="#FFEB3B"/>
    <rect x="28" y="48" width="4" height="4" fill="#1A1A1A"/>
    <rect x="32" y="48" width="4" height="4" fill="#2D2D2D"/>
    <rect x="36" y="48" width="4" height="4" fill="#FFF176"/>
    <rect x="40" y="48" width="4" height="4" fill="#FFC107"/>
    <rect x="30" y="52" width="4" height="4" fill="#2D2D2D"/>
    <rect x="34" y="52" width="4" height="4" fill="#1A1A1A"/>
    <rect x="38" y="52" width="4" height="4" fill="#FF9800"/>
    <rect x="42" y="52" width="4" height="4" fill="#FF6F00"/>
    <rect x="32" y="56" width="4" height="4" fill="#1A1A1A"/>
    <rect x="36" y="56" width="4" height="4" fill="#2D2D2D"/>
    <rect x="40" y="56" width="4" height="4" fill="#1A1A1A"/>
    <!-- Back leg 2 wide -->
    <rect x="22" y="58" width="4" height="4" fill="#2D2D2D"/>
    <rect x="26" y="58" width="4" height="4" fill="#1A1A1A"/>
    <rect x="20" y="62" width="4" height="4" fill="#1A1A1A"/>
    <rect x="24" y="62" width="4" height="4" fill="#FF6F00"/>
    <rect x="18" y="66" width="4" height="4" fill="#FF6F00"/>
    <rect x="22" y="66" width="4" height="4" fill="#2D2D2D"/>
    <rect x="16" y="70" width="4" height="4" fill="#2D2D2D"/>
    <rect x="20" y="70" width="4" height="4" fill="#1A1A1A"/>
    <rect x="14" y="74" width="4" height="4" fill="#FF9800"/>
    <rect x="18" y="74" width="4" height="4" fill="#2D2D2D"/>
    <rect x="10" y="78" width="4" height="4" fill="#FFC107"/>
    <rect x="14" y="78" width="4" height="4" fill="#FF9800"/>
    <rect x="18" y="78" width="4" height="4" fill="#FFC107"/>
    <rect x="8" y="82" width="4" height="4" fill="#FFEB3B"/>
    <rect x="16" y="82" width="4" height="4" fill="#FFEB3B"/>
    <!-- Front leg forward 2 wide -->
    <rect x="38" y="58" width="4" height="4" fill="#1A1A1A"/>
    <rect x="42" y="58" width="4" height="4" fill="#2D2D2D"/>
    <rect x="42" y="62" width="4" height="4" fill="#FF6F00"/>
    <rect x="46" y="62" width="4" height="4" fill="#1A1A1A"/>
    <rect x="46" y="66" width="4" height="4" fill="#2D2D2D"/>
    <rect x="50" y="66" width="4" height="4" fill="#FF6F00"/>
    <rect x="48" y="70" width="4" height="4" fill="#1A1A1A"/>
    <rect x="52" y="70" width="4" height="4" fill="#2D2D2D"/>
    <rect x="50" y="74" width="4" height="4" fill="#FF9800"/>
    <rect x="54" y="74" width="4" height="4" fill="#2D2D2D"/>
    <rect x="50" y="78" width="4" height="4" fill="#FFC107"/>
    <rect x="54" y="78" width="4" height="4" fill="#FF9800"/>
    <rect x="58" y="78" width="4" height="4" fill="#FFC107"/>
    <rect x="52" y="82" width="4" height="4" fill="#FFEB3B"/>
    <rect x="60" y="82" width="4" height="4" fill="#FFEB3B"/>
  </g>
  
  <!-- FRAME 3: MOVE2 (x=192) - Side view alternate THICK -->
  <g transform="translate(192, 0)">
    <ellipse cx="32" cy="92" rx="10" ry="2" fill="#000000" opacity="0.5"/>
    <!-- Flames more trail -->
    <rect x="14" y="0" width="4" height="4" fill="#FF6F00"/>
    <rect x="18" y="2" width="4" height="4" fill="#FF9800"/>
    <rect x="22" y="4" width="4" height="4" fill="#FFA726"/>
    <rect x="10" y="4" width="4" height="4" fill="#FF6F00"/>
    <rect x="26" y="6" width="4" height="4" fill="#FF9800"/>
    <rect x="30" y="8" width="4" height="4" fill="#FFA726"/>
    <!-- Horn -->
    <rect x="40" y="12" width="4" height="4" fill="#1A1A1A"/>
    <rect x="44" y="16" width="4" height="4" fill="#2D2D2D"/>
    <rect x="48" y="20" width="4" height="4" fill="#1A1A1A"/>
    <rect x="52" y="24" width="4" height="4" fill="#2D2D2D"/>
    <!-- Head 2 wide -->
    <rect x="26" y="8" width="4" height="4" fill="#FFEB3B"/>
    <rect x="30" y="8" width="4" height="4" fill="#FFF176"/>
    <rect x="34" y="10" width="4" height="4" fill="#FFC107"/>
    <rect x="26" y="12" width="4" height="4" fill="#FFC107"/>
    <rect x="30" y="12" width="4" height="4" fill="#FFEB3B"/>
    <rect x="34" y="14" width="4" height="4" fill="#FF9800"/>
    <rect x="26" y="16" width="4" height="4" fill="#2D2D2D"/>
    <rect x="30" y="16" width="4" height="4" fill="#1A1A1A"/>
    <rect x="34" y="18" width="4" height="4" fill="#2D2D2D"/>
    <rect x="30" y="20" width="4" height="4" fill="#FFEB3B"/>
    <rect x="34" y="22" width="4" height="4" fill="#1A1A1A"/>
    <rect x="32" y="26" width="4" height="4" fill="#1A1A1A"/>
    <rect x="36" y="28" width="4" height="4" fill="#2D2D2D"/>
    <rect x="34" y="32" width="4" height="4" fill="#FF6F00"/>
    <!-- Neck 2 wide -->
    <rect x="32" y="36" width="4" height="4" fill="#FF9800"/>
    <rect x="36" y="36" width="4" height="4" fill="#FF6F00"/>
    <!-- Body 2 wide -->
    <rect x="28" y="40" width="4" height="4" fill="#1A1A1A"/>
    <rect x="32" y="40" width="4" height="4" fill="#2D2D2D"/>
    <rect x="36" y="40" width="4" height="4" fill="#FFC107"/>
    <rect x="40" y="40" width="4" height="4" fill="#FF9800"/>
    <!-- Arm back 2 wide -->
    <rect x="42" y="40" width="4" height="4" fill="#2D2D2D"/>
    <rect x="46" y="40" width="4" height="4" fill="#1A1A1A"/>
    <rect x="44" y="44" width="4" height="4" fill="#1A1A1A"/>
    <rect x="48" y="44" width="4" height="4" fill="#FF6F00"/>
    <rect x="44" y="48" width="4" height="4" fill="#2D2D2D"/>
    <rect x="48" y="48" width="4" height="4" fill="#FF9800"/>
    <rect x="42" y="52" width="4" height="4" fill="#FF9800"/>
    <rect x="46" y="52" width="4" height="4" fill="#2D2D2D"/>
    <rect x="40" y="56" width="4" height="4" fill="#FFC107"/>
    <rect x="44" y="56" width="4" height="4" fill="#FF9800"/>
    <rect x="38" y="60" width="4" height="4" fill="#FFEB3B"/>
    <rect x="42" y="60" width="4" height="4" fill="#FFC107"/>
    <!-- Torso 2 wide -->
    <rect x="26" y="44" width="4" height="4" fill="#2D2D2D"/>
    <rect x="30" y="44" width="4" height="4" fill="#1A1A1A"/>
    <rect x="34" y="44" width="4" height="4" fill="#FF9800"/>
    <rect x="38" y="44" width="4" height="4" fill="#FFEB3B"/>
    <rect x="28" y="48" width="4" height="4" fill="#1A1A1A"/>
    <rect x="32" y="48" width="4" height="4" fill="#2D2D2D"/>
    <rect x="36" y="48" width="4" height="4" fill="#FFF176"/>
    <rect x="40" y="48" width="4" height="4" fill="#FFC107"/>
    <rect x="30" y="52" width="4" height="4" fill="#2D2D2D"/>
    <rect x="34" y="52" width="4" height="4" fill="#1A1A1A"/>
    <rect x="38" y="52" width="4" height="4" fill="#FF9800"/>
    <rect x="32" y="56" width="4" height="4" fill="#1A1A1A"/>
    <rect x="36" y="56" width="4" height="4" fill="#2D2D2D"/>
    <!-- Front leg back 2 wide -->
    <rect x="40" y="58" width="4" height="4" fill="#1A1A1A"/>
    <rect x="44" y="58" width="4" height="4" fill="#2D2D2D"/>
    <rect x="38" y="62" width="4" height="4" fill="#FF6F00"/>
    <rect x="42" y="62" width="4" height="4" fill="#1A1A1A"/>
    <rect x="36" y="66" width="4" height="4" fill="#2D2D2D"/>
    <rect x="40" y="66" width="4" height="4" fill="#FF6F00"/>
    <rect x="34" y="70" width="4" height="4" fill="#1A1A1A"/>
    <rect x="38" y="70" width="4" height="4" fill="#2D2D2D"/>
    <rect x="32" y="74" width="4" height="4" fill="#FF9800"/>
    <rect x="36" y="74" width="4" height="4" fill="#2D2D2D"/>
    <rect x="28" y="78" width="4" height="4" fill="#FFC107"/>
    <rect x="32" y="78" width="4" height="4" fill="#FF9800"/>
    <rect x="36" y="78" width="4" height="4" fill="#FFC107"/>
    <rect x="28" y="82" width="4" height="4" fill="#FFEB3B"/>
    <rect x="36" y="82" width="4" height="4" fill="#FFEB3B"/>
    <!-- Back leg forward 2 wide -->
    <rect x="26" y="58" width="4" height="4" fill="#2D2D2D"/>
    <rect x="30" y="58" width="4" height="4" fill="#1A1A1A"/>
    <rect x="30" y="62" width="4" height="4" fill="#FF6F00"/>
    <rect x="34" y="62" width="4" height="4" fill="#2D2D2D"/>
    <rect x="34" y="66" width="4" height="4" fill="#2D2D2D"/>
    <rect x="38" y="66" width="4" height="4" fill="#FF6F00"/>
    <rect x="38" y="70" width="4" height="4" fill="#1A1A1A"/>
    <rect x="42" y="70" width="4" height="4" fill="#2D2D2D"/>
    <rect x="42" y="74" width="4" height="4" fill="#FF9800"/>
    <rect x="46" y="74" width="4" height="4" fill="#2D2D2D"/>
    <rect x="44" y="78" width="4" height="4" fill="#FFC107"/>
    <rect x="48" y="78" width="4" height="4" fill="#FF9800"/>
    <rect x="52" y="78" width="4" height="4" fill="#FFC107"/>
    <rect x="46" y="82" width="4" height="4" fill="#FFEB3B"/>
    <rect x="54" y="82" width="4" height="4" fill="#FFEB3B"/>
  </g>
  
  <!-- FRAME 4-7: DEATH AND ASH (simplified) -->
  <!-- FRAME 4: DEATH1 (x=256) -->
  <g transform="translate(256, 0)">
    <ellipse cx="32" cy="92" rx="10" ry="2" fill="#000000" opacity="0.4"/>
    <rect x="26" y="6" width="4" height="4" fill="#FF6F00"/>
    <rect x="34" y="4" width="4" height="4" fill="#FF9800"/>
    <rect x="14" y="16" width="4" height="4" fill="#1A1A1A"/>
    <rect x="46" y="16" width="4" height="4" fill="#1A1A1A"/>
    <rect x="28" y="12" width="4" height="4" fill="#FFC107"/>
    <rect x="32" y="12" width="4" height="4" fill="#FF9800"/>
    <rect x="26" y="16" width="4" height="4" fill="#FFEB3B"/>
    <rect x="30" y="16" width="4" height="4" fill="#FFC107"/>
    <rect x="28" y="20" width="4" height="4" fill="#2D2D2D"/>
    <rect x="32" y="22" width="4" height="4" fill="#FFEB3B"/>
    <rect x="30" y="28" width="4" height="4" fill="#1A1A1A"/>
    <rect x="28" y="32" width="4" height="4" fill="#FF6F00"/>
    <rect x="26" y="38" width="4" height="4" fill="#1A1A1A"/>
    <rect x="30" y="38" width="4" height="4" fill="#FF9800"/>
    <rect x="34" y="40" width="4" height="4" fill="#FFC107"/>
    <rect x="28" y="44" width="4" height="4" fill="#2D2D2D"/>
    <rect x="32" y="46" width="4" height="4" fill="#FFEB3B"/>
    <rect x="18" y="38" width="4" height="4" fill="#2D2D2D"/>
    <rect x="14" y="44" width="4" height="4" fill="#FF6F00"/>
    <rect x="10" y="52" width="4" height="4" fill="#FFC107"/>
    <rect x="42" y="40" width="4" height="4" fill="#2D2D2D"/>
    <rect x="46" y="46" width="4" height="4" fill="#FF6F00"/>
    <rect x="50" y="54" width="4" height="4" fill="#FFC107"/>
    <rect x="24" y="56" width="4" height="4" fill="#1A1A1A"/>
    <rect x="36" y="56" width="4" height="4" fill="#1A1A1A"/>
    <rect x="22" y="62" width="4" height="4" fill="#FF6F00"/>
    <rect x="38" y="62" width="4" height="4" fill="#FF6F00"/>
    <rect x="20" y="70" width="4" height="4" fill="#FF9800"/>
    <rect x="40" y="70" width="4" height="4" fill="#FF9800"/>
    <rect x="18" y="78" width="4" height="4" fill="#FFC107"/>
    <rect x="42" y="78" width="4" height="4" fill="#FFC107"/>
  </g>
  
  <!-- FRAME 5: DEATH2 (x=320) -->
  <g transform="translate(320, 0)">
    <ellipse cx="32" cy="92" rx="8" ry="2" fill="#000000" opacity="0.3"/>
    <rect x="28" y="24" width="4" height="4" fill="#FF6F00"/>
    <rect x="36" y="22" width="4" height="4" fill="#FF9800"/>
    <rect x="16" y="32" width="4" height="4" fill="#1A1A1A"/>
    <rect x="44" y="30" width="4" height="4" fill="#2D2D2D"/>
    <rect x="28" y="30" width="4" height="4" fill="#FFC107"/>
    <rect x="32" y="32" width="4" height="4" fill="#2D2D2D"/>
    <rect x="30" y="36" width="4" height="4" fill="#FFEB3B"/>
    <rect x="26" y="42" width="4" height="4" fill="#1A1A1A"/>
    <rect x="30" y="44" width="4" height="4" fill="#FF9800"/>
    <rect x="28" y="50" width="4" height="4" fill="#FFC107"/>
    <rect x="18" y="46" width="4" height="4" fill="#FF6F00"/>
    <rect x="42" y="44" width="4" height="4" fill="#FF6F00"/>
    <rect x="14" y="58" width="4" height="4" fill="#FFC107"/>
    <rect x="46" y="56" width="4" height="4" fill="#FFC107"/>
    <rect x="24" y="58" width="4" height="4" fill="#2D2D2D"/>
    <rect x="36" y="58" width="4" height="4" fill="#2D2D2D"/>
    <rect x="22" y="66" width="4" height="4" fill="#FF9800"/>
    <rect x="38" y="66" width="4" height="4" fill="#FF9800"/>
    <rect x="20" y="74" width="4" height="4" fill="#FFC107"/>
    <rect x="40" y="74" width="4" height="4" fill="#FFC107"/>
  </g>
  
  <!-- FRAME 6: DEATH3 (x=384) -->
  <g transform="translate(384, 0)">
    <ellipse cx="32" cy="92" rx="6" ry="1" fill="#000000" opacity="0.2"/>
    <rect x="24" y="32" width="4" height="4" fill="#FF6F00"/>
    <rect x="38" y="28" width="4" height="4" fill="#FF9800"/>
    <rect x="20" y="42" width="4" height="4" fill="#FFC107"/>
    <rect x="42" y="38" width="4" height="4" fill="#FFC107"/>
    <rect x="28" y="50" width="4" height="4" fill="#2D2D2D"/>
    <rect x="32" y="52" width="4" height="4" fill="#1A1A1A"/>
    <rect x="30" y="56" width="4" height="4" fill="#FFEB3B"/>
    <rect x="34" y="58" width="4" height="4" fill="#FFC107"/>
    <rect x="18" y="58" width="4" height="4" fill="#FF6F00"/>
    <rect x="44" y="56" width="4" height="4" fill="#FF6F00"/>
    <rect x="24" y="68" width="4" height="4" fill="#FF9800"/>
    <rect x="38" y="66" width="4" height="4" fill="#FF9800"/>
    <rect x="28" y="74" width="4" height="4" fill="#FFC107"/>
    <rect x="34" y="72" width="4" height="4" fill="#FFC107"/>
  </g>
  
  <!-- FRAME 7: ASH PILE (x=448) -->
  <g transform="translate(448, 0)">
    <rect x="16" y="76" width="4" height="4" fill="#424242"/>
    <rect x="20" y="76" width="4" height="4" fill="#616161"/>
    <rect x="24" y="76" width="4" height="4" fill="#757575"/>
    <rect x="28" y="76" width="4" height="4" fill="#9E9E9E"/>
    <rect x="32" y="76" width="4" height="4" fill="#9E9E9E"/>
    <rect x="36" y="76" width="4" height="4" fill="#757575"/>
    <rect x="40" y="76" width="4" height="4" fill="#616161"/>
    <rect x="44" y="76" width="4" height="4" fill="#424242"/>
    <rect x="12" y="80" width="4" height="4" fill="#424242"/>
    <rect x="16" y="80" width="4" height="4" fill="#616161"/>
    <rect x="20" y="80" width="4" height="4" fill="#757575"/>
    <rect x="24" y="80" width="4" height="4" fill="#9E9E9E"/>
    <rect x="28" y="80" width="4" height="4" fill="#BDBDBD"/>
    <rect x="32" y="80" width="4" height="4" fill="#BDBDBD"/>
    <rect x="36" y="80" width="4" height="4" fill="#9E9E9E"/>
    <rect x="40" y="80" width="4" height="4" fill="#757575"/>
    <rect x="44" y="80" width="4" height="4" fill="#616161"/>
    <rect x="48" y="80" width="4" height="4" fill="#424242"/>
    <rect x="16" y="84" width="4" height="4" fill="#424242"/>
    <rect x="20" y="84" width="4" height="4" fill="#616161"/>
    <rect x="24" y="84" width="4" height="4" fill="#757575"/>
    <rect x="28" y="84" width="4" height="4" fill="#9E9E9E"/>
    <rect x="32" y="84" width="4" height="4" fill="#9E9E9E"/>
    <rect x="36" y="84" width="4" height="4" fill="#757575"/>
    <rect x="40" y="84" width="4" height="4" fill="#616161"/>
    <rect x="44" y="84" width="4" height="4" fill="#424242"/>
    <rect x="22" y="78" width="4" height="4" fill="#FF5722"/>
    <rect x="30" y="78" width="4" height="4" fill="#FF9800"/>
    <rect x="38" y="78" width="4" height="4" fill="#BF360C"/>
    <rect x="26" y="82" width="4" height="4" fill="#E64A19"/>
    <rect x="34" y="82" width="4" height="4" fill="#FF5722"/>
    <rect x="28" y="68" width="4" height="4" fill="#757575" opacity="0.4"/>
    <rect x="32" y="64" width="4" height="4" fill="#616161" opacity="0.3"/>
  </g>
</svg>
