<svg xmlns="http://www.w3.org/2000/svg" viewBox="0 0 512 112" width="1024" height="224">
  <!-- 
    INFERNO DEMON SPRITE SHEET - Tier 3 - THICK LIMBS VERSION
    8 frames at 64x112 each
    All limbs 2 squares wide in walking animations
  -->
  
  <!-- FRAME 0: IDLE (x=0) -->
  <g transform="translate(0, 0)">
    <ellipse cx="32" cy="108" rx="14" ry="3" fill="#000000" opacity="0.6"/>
    <!-- Flame crown -->
    <rect x="28" y="0" width="4" height="4" fill="#BF360C"/>
    <rect x="32" y="0" width="4" height="4" fill="#BF360C"/>
    <rect x="28" y="4" width="4" height="4" fill="#E64A19"/>
    <rect x="32" y="4" width="4" height="4" fill="#FF5722"/>
    <rect x="28" y="8" width="4" height="4" fill="#FF9800"/>
    <rect x="32" y="8" width="4" height="4" fill="#FFA726"/>
    <rect x="20" y="4" width="4" height="4" fill="#BF360C"/>
    <rect x="24" y="6" width="4" height="4" fill="#E64A19"/>
    <rect x="36" y="6" width="4" height="4" fill="#E64A19"/>
    <rect x="40" y="4" width="4" height="4" fill="#BF360C"/>
    <rect x="16" y="8" width="4" height="4" fill="#BF360C"/>
    <rect x="44" y="8" width="4" height="4" fill="#BF360C"/>
    <rect x="20" y="10" width="4" height="4" fill="#FF5722"/>
    <rect x="40" y="10" width="4" height="4" fill="#FF5722"/>
    <!-- Horns -->
    <rect x="12" y="14" width="4" height="4" fill="#0D0D0D"/>
    <rect x="8" y="18" width="4" height="4" fill="#1A1A1A"/>
    <rect x="4" y="18" width="4" height="4" fill="#0D0D0D"/>
    <rect x="4" y="22" width="4" height="4" fill="#1A1A1A"/>
    <rect x="0" y="22" width="4" height="4" fill="#0D0D0D"/>
    <rect x="0" y="26" width="4" height="4" fill="#1A1A1A"/>
    <rect x="48" y="14" width="4" height="4" fill="#0D0D0D"/>
    <rect x="52" y="18" width="4" height="4" fill="#1A1A1A"/>
    <rect x="56" y="18" width="4" height="4" fill="#0D0D0D"/>
    <rect x="56" y="22" width="4" height="4" fill="#1A1A1A"/>
    <rect x="60" y="22" width="4" height="4" fill="#0D0D0D"/>
    <rect x="60" y="26" width="4" height="4" fill="#1A1A1A"/>
    <!-- Head -->
    <rect x="24" y="10" width="4" height="4" fill="#FFC107"/>
    <rect x="28" y="10" width="4" height="4" fill="#FFEB3B"/>
    <rect x="32" y="10" width="4" height="4" fill="#FFEB3B"/>
    <rect x="36" y="10" width="4" height="4" fill="#FFC107"/>
    <rect x="20" y="14" width="4" height="4" fill="#FF9800"/>
    <rect x="24" y="14" width="4" height="4" fill="#FFC107"/>
    <rect x="28" y="14" width="4" height="4" fill="#FFEB3B"/>
    <rect x="32" y="14" width="4" height="4" fill="#FFEB3B"/>
    <rect x="36" y="14" width="4" height="4" fill="#FFC107"/>
    <rect x="40" y="14" width="4" height="4" fill="#FF9800"/>
    <rect x="16" y="18" width="4" height="4" fill="#0D0D0D"/>
    <rect x="20" y="18" width="4" height="4" fill="#1A1A1A"/>
    <rect x="24" y="18" width="4" height="4" fill="#2D2D2D"/>
    <rect x="28" y="18" width="4" height="4" fill="#FF6F00"/>
    <rect x="32" y="18" width="4" height="4" fill="#FF6F00"/>
    <rect x="36" y="18" width="4" height="4" fill="#2D2D2D"/>
    <rect x="40" y="18" width="4" height="4" fill="#1A1A1A"/>
    <rect x="44" y="18" width="4" height="4" fill="#0D0D0D"/>
    <rect x="16" y="22" width="4" height="4" fill="#1A1A1A"/>
    <rect x="20" y="22" width="4" height="4" fill="#0D0D0D"/>
    <rect x="24" y="22" width="4" height="4" fill="#1A1A1A"/>
    <rect x="28" y="22" width="4" height="4" fill="#2D2D2D"/>
    <rect x="32" y="22" width="4" height="4" fill="#2D2D2D"/>
    <rect x="36" y="22" width="4" height="4" fill="#1A1A1A"/>
    <rect x="40" y="22" width="4" height="4" fill="#0D0D0D"/>
    <rect x="44" y="22" width="4" height="4" fill="#1A1A1A"/>
    <!-- Evil eyes -->
    <rect x="18" y="26" width="4" height="4" fill="#1A1A1A"/>
    <rect x="22" y="26" width="4" height="4" fill="#FFEB3B"/>
    <rect x="26" y="26" width="4" height="4" fill="#000000"/>
    <rect x="30" y="26" width="4" height="4" fill="#1A1A1A"/>
    <rect x="34" y="26" width="4" height="4" fill="#000000"/>
    <rect x="38" y="26" width="4" height="4" fill="#FFEB3B"/>
    <rect x="42" y="26" width="4" height="4" fill="#1A1A1A"/>
    <!-- Lower face -->
    <rect x="22" y="30" width="4" height="4" fill="#2D2D2D"/>
    <rect x="26" y="30" width="4" height="4" fill="#1A1A1A"/>
    <rect x="30" y="30" width="4" height="4" fill="#FF5722"/>
    <rect x="34" y="30" width="4" height="4" fill="#1A1A1A"/>
    <rect x="38" y="30" width="4" height="4" fill="#2D2D2D"/>
    <rect x="26" y="34" width="4" height="4" fill="#2D2D2D"/>
    <rect x="30" y="34" width="4" height="4" fill="#1A1A1A"/>
    <rect x="34" y="34" width="4" height="4" fill="#2D2D2D"/>
    <!-- Neck -->
    <rect x="28" y="38" width="4" height="4" fill="#FF6F00"/>
    <rect x="32" y="38" width="4" height="4" fill="#FF9800"/>
    <!-- Shoulders -->
    <rect x="8" y="42" width="4" height="4" fill="#0D0D0D"/>
    <rect x="12" y="42" width="4" height="4" fill="#1A1A1A"/>
    <rect x="16" y="42" width="4" height="4" fill="#FF5722"/>
    <rect x="20" y="42" width="4" height="4" fill="#1A1A1A"/>
    <rect x="24" y="42" width="4" height="4" fill="#FF9800"/>
    <rect x="28" y="42" width="4" height="4" fill="#FFC107"/>
    <rect x="32" y="42" width="4" height="4" fill="#FFC107"/>
    <rect x="36" y="42" width="4" height="4" fill="#FF9800"/>
    <rect x="40" y="42" width="4" height="4" fill="#1A1A1A"/>
    <rect x="44" y="42" width="4" height="4" fill="#FF5722"/>
    <rect x="48" y="42" width="4" height="4" fill="#1A1A1A"/>
    <rect x="52" y="42" width="4" height="4" fill="#0D0D0D"/>
    <!-- Arms (2 wide) -->
    <rect x="4" y="46" width="4" height="4" fill="#1A1A1A"/>
    <rect x="8" y="46" width="4" height="4" fill="#2D2D2D"/>
    <rect x="4" y="50" width="4" height="4" fill="#2D2D2D"/>
    <rect x="8" y="50" width="4" height="4" fill="#FF5722"/>
    <rect x="4" y="54" width="4" height="4" fill="#1A1A1A"/>
    <rect x="8" y="54" width="4" height="4" fill="#2D2D2D"/>
    <rect x="4" y="58" width="4" height="4" fill="#FF6F00"/>
    <rect x="8" y="58" width="4" height="4" fill="#1A1A1A"/>
    <rect x="4" y="62" width="4" height="4" fill="#2D2D2D"/>
    <rect x="8" y="62" width="4" height="4" fill="#FF9800"/>
    <rect x="0" y="66" width="4" height="4" fill="#FFC107"/>
    <rect x="4" y="66" width="4" height="4" fill="#FF9800"/>
    <rect x="8" y="66" width="4" height="4" fill="#FFC107"/>
    <rect x="0" y="70" width="4" height="4" fill="#FFEB3B"/>
    <rect x="8" y="70" width="4" height="4" fill="#FFEB3B"/>
    <rect x="52" y="46" width="4" height="4" fill="#2D2D2D"/>
    <rect x="56" y="46" width="4" height="4" fill="#1A1A1A"/>
    <rect x="52" y="50" width="4" height="4" fill="#FF5722"/>
    <rect x="56" y="50" width="4" height="4" fill="#2D2D2D"/>
    <rect x="52" y="54" width="4" height="4" fill="#2D2D2D"/>
    <rect x="56" y="54" width="4" height="4" fill="#1A1A1A"/>
    <rect x="52" y="58" width="4" height="4" fill="#1A1A1A"/>
    <rect x="56" y="58" width="4" height="4" fill="#FF6F00"/>
    <rect x="52" y="62" width="4" height="4" fill="#FF9800"/>
    <rect x="56" y="62" width="4" height="4" fill="#2D2D2D"/>
    <rect x="52" y="66" width="4" height="4" fill="#FFC107"/>
    <rect x="56" y="66" width="4" height="4" fill="#FF9800"/>
    <rect x="60" y="66" width="4" height="4" fill="#FFC107"/>
    <rect x="52" y="70" width="4" height="4" fill="#FFEB3B"/>
    <rect x="60" y="70" width="4" height="4" fill="#FFEB3B"/>
    <!-- Torso -->
    <rect x="12" y="46" width="4" height="4" fill="#1A1A1A"/>
    <rect x="16" y="46" width="4" height="4" fill="#2D2D2D"/>
    <rect x="20" y="46" width="4" height="4" fill="#FF6F00"/>
    <rect x="24" y="46" width="4" height="4" fill="#FF9800"/>
    <rect x="28" y="46" width="4" height="4" fill="#FFEB3B"/>
    <rect x="32" y="46" width="4" height="4" fill="#FFEB3B"/>
    <rect x="36" y="46" width="4" height="4" fill="#FF9800"/>
    <rect x="40" y="46" width="4" height="4" fill="#FF6F00"/>
    <rect x="44" y="46" width="4" height="4" fill="#2D2D2D"/>
    <rect x="48" y="46" width="4" height="4" fill="#1A1A1A"/>
    <rect x="16" y="50" width="4" height="4" fill="#1A1A1A"/>
    <rect x="20" y="50" width="4" height="4" fill="#2D2D2D"/>
    <rect x="24" y="50" width="4" height="4" fill="#FFC107"/>
    <rect x="28" y="50" width="4" height="4" fill="#FFF176"/>
    <rect x="32" y="50" width="4" height="4" fill="#FFF176"/>
    <rect x="36" y="50" width="4" height="4" fill="#FFC107"/>
    <rect x="40" y="50" width="4" height="4" fill="#2D2D2D"/>
    <rect x="44" y="50" width="4" height="4" fill="#1A1A1A"/>
    <rect x="18" y="54" width="4" height="4" fill="#1A1A1A"/>
    <rect x="22" y="54" width="4" height="4" fill="#FF6F00"/>
    <rect x="26" y="54" width="4" height="4" fill="#FFC107"/>
    <rect x="30" y="54" width="4" height="4" fill="#FFC107"/>
    <rect x="34" y="54" width="4" height="4" fill="#FFC107"/>
    <rect x="38" y="54" width="4" height="4" fill="#FF6F00"/>
    <rect x="42" y="54" width="4" height="4" fill="#1A1A1A"/>
    <rect x="20" y="58" width="4" height="4" fill="#2D2D2D"/>
    <rect x="24" y="58" width="4" height="4" fill="#1A1A1A"/>
    <rect x="28" y="58" width="4" height="4" fill="#FF9800"/>
    <rect x="32" y="58" width="4" height="4" fill="#FF9800"/>
    <rect x="36" y="58" width="4" height="4" fill="#1A1A1A"/>
    <rect x="40" y="58" width="4" height="4" fill="#2D2D2D"/>
    <rect x="22" y="62" width="4" height="4" fill="#1A1A1A"/>
    <rect x="26" y="62" width="4" height="4" fill="#2D2D2D"/>
    <rect x="30" y="62" width="4" height="4" fill="#1A1A1A"/>
    <rect x="34" y="62" width="4" height="4" fill="#2D2D2D"/>
    <rect x="38" y="62" width="4" height="4" fill="#1A1A1A"/>
    <!-- Legs (2 wide) -->
    <rect x="22" y="66" width="4" height="4" fill="#2D2D2D"/>
    <rect x="26" y="66" width="4" height="4" fill="#1A1A1A"/>
    <rect x="22" y="70" width="4" height="4" fill="#FF5722"/>
    <rect x="26" y="70" width="4" height="4" fill="#2D2D2D"/>
    <rect x="22" y="74" width="4" height="4" fill="#1A1A1A"/>
    <rect x="26" y="74" width="4" height="4" fill="#FF6F00"/>
    <rect x="22" y="78" width="4" height="4" fill="#2D2D2D"/>
    <rect x="26" y="78" width="4" height="4" fill="#1A1A1A"/>
    <rect x="22" y="82" width="4" height="4" fill="#FF6F00"/>
    <rect x="26" y="82" width="4" height="4" fill="#2D2D2D"/>
    <rect x="22" y="86" width="4" height="4" fill="#1A1A1A"/>
    <rect x="26" y="86" width="4" height="4" fill="#FF9800"/>
    <rect x="18" y="90" width="4" height="4" fill="#FFC107"/>
    <rect x="22" y="90" width="4" height="4" fill="#FF9800"/>
    <rect x="26" y="90" width="4" height="4" fill="#FFC107"/>
    <rect x="14" y="94" width="4" height="4" fill="#FFEB3B"/>
    <rect x="22" y="94" width="4" height="4" fill="#FFC107"/>
    <rect x="30" y="94" width="4" height="4" fill="#FFEB3B"/>
    <rect x="34" y="66" width="4" height="4" fill="#1A1A1A"/>
    <rect x="38" y="66" width="4" height="4" fill="#2D2D2D"/>
    <rect x="34" y="70" width="4" height="4" fill="#2D2D2D"/>
    <rect x="38" y="70" width="4" height="4" fill="#FF5722"/>
    <rect x="34" y="74" width="4" height="4" fill="#FF6F00"/>
    <rect x="38" y="74" width="4" height="4" fill="#1A1A1A"/>
    <rect x="34" y="78" width="4" height="4" fill="#1A1A1A"/>
    <rect x="38" y="78" width="4" height="4" fill="#2D2D2D"/>
    <rect x="34" y="82" width="4" height="4" fill="#2D2D2D"/>
    <rect x="38" y="82" width="4" height="4" fill="#FF6F00"/>
    <rect x="34" y="86" width="4" height="4" fill="#FF9800"/>
    <rect x="38" y="86" width="4" height="4" fill="#1A1A1A"/>
    <rect x="34" y="90" width="4" height="4" fill="#FFC107"/>
    <rect x="38" y="90" width="4" height="4" fill="#FF9800"/>
    <rect x="42" y="90" width="4" height="4" fill="#FFC107"/>
    <rect x="30" y="94" width="4" height="4" fill="#FFEB3B"/>
    <rect x="38" y="94" width="4" height="4" fill="#FFC107"/>
    <rect x="46" y="94" width="4" height="4" fill="#FFEB3B"/>
  </g>
  
  <!-- FRAME 1: TURN (x=64) -->
  <g transform="translate(64, 0)">
    <ellipse cx="34" cy="108" rx="12" ry="3" fill="#000000" opacity="0.5"/>
    <rect x="30" y="0" width="4" height="4" fill="#BF360C"/>
    <rect x="34" y="2" width="4" height="4" fill="#E64A19"/>
    <rect x="26" y="4" width="4" height="4" fill="#FF5722"/>
    <rect x="30" y="6" width="4" height="4" fill="#FF9800"/>
    <rect x="22" y="6" width="4" height="4" fill="#E64A19"/>
    <rect x="18" y="8" width="4" height="4" fill="#BF360C"/>
    <rect x="10" y="16" width="4" height="4" fill="#0D0D0D"/>
    <rect x="6" y="20" width="4" height="4" fill="#1A1A1A"/>
    <rect x="2" y="24" width="4" height="4" fill="#0D0D0D"/>
    <rect x="48" y="18" width="4" height="4" fill="#0D0D0D"/>
    <rect x="52" y="22" width="4" height="4" fill="#1A1A1A"/>
    <rect x="56" y="26" width="4" height="4" fill="#0D0D0D"/>
    <rect x="26" y="10" width="4" height="4" fill="#FFC107"/>
    <rect x="30" y="10" width="4" height="4" fill="#FFEB3B"/>
    <rect x="34" y="12" width="4" height="4" fill="#FFC107"/>
    <rect x="26" y="16" width="4" height="4" fill="#FFC107"/>
    <rect x="30" y="18" width="4" height="4" fill="#FFEB3B"/>
    <rect x="34" y="20" width="4" height="4" fill="#FF9800"/>
    <rect x="24" y="24" width="4" height="4" fill="#2D2D2D"/>
    <rect x="28" y="26" width="4" height="4" fill="#FFEB3B"/>
    <rect x="32" y="28" width="4" height="4" fill="#000000"/>
    <rect x="36" y="30" width="4" height="4" fill="#FFEB3B"/>
    <rect x="28" y="34" width="4" height="4" fill="#1A1A1A"/>
    <rect x="32" y="38" width="4" height="4" fill="#FF5722"/>
    <rect x="30" y="44" width="4" height="4" fill="#FF6F00"/>
    <!-- Body 2 wide -->
    <rect x="26" y="48" width="4" height="4" fill="#1A1A1A"/>
    <rect x="30" y="48" width="4" height="4" fill="#2D2D2D"/>
    <rect x="34" y="48" width="4" height="4" fill="#FF9800"/>
    <rect x="38" y="50" width="4" height="4" fill="#FFC107"/>
    <!-- Arms 2 wide -->
    <rect x="14" y="48" width="4" height="4" fill="#2D2D2D"/>
    <rect x="18" y="48" width="4" height="4" fill="#1A1A1A"/>
    <rect x="10" y="52" width="4" height="4" fill="#1A1A1A"/>
    <rect x="14" y="52" width="4" height="4" fill="#FF5722"/>
    <rect x="6" y="58" width="4" height="4" fill="#2D2D2D"/>
    <rect x="10" y="58" width="4" height="4" fill="#FF9800"/>
    <rect x="2" y="66" width="4" height="4" fill="#FFC107"/>
    <rect x="6" y="66" width="4" height="4" fill="#FF9800"/>
    <rect x="0" y="72" width="4" height="4" fill="#FFEB3B"/>
    <rect x="8" y="72" width="4" height="4" fill="#FFEB3B"/>
    <rect x="42" y="50" width="4" height="4" fill="#2D2D2D"/>
    <rect x="46" y="50" width="4" height="4" fill="#1A1A1A"/>
    <rect x="46" y="54" width="4" height="4" fill="#1A1A1A"/>
    <rect x="50" y="54" width="4" height="4" fill="#FF5722"/>
    <rect x="50" y="60" width="4" height="4" fill="#2D2D2D"/>
    <rect x="54" y="60" width="4" height="4" fill="#FF9800"/>
    <rect x="54" y="68" width="4" height="4" fill="#FFC107"/>
    <rect x="58" y="68" width="4" height="4" fill="#FF9800"/>
    <rect x="56" y="74" width="4" height="4" fill="#FFEB3B"/>
    <!-- Torso -->
    <rect x="28" y="54" width="4" height="4" fill="#FF9800"/>
    <rect x="32" y="56" width="4" height="4" fill="#FFF176"/>
    <rect x="36" y="58" width="4" height="4" fill="#FFC107"/>
    <rect x="30" y="64" width="4" height="4" fill="#2D2D2D"/>
    <rect x="34" y="68" width="4" height="4" fill="#1A1A1A"/>
    <!-- Legs 2 wide -->
    <rect x="24" y="70" width="4" height="4" fill="#2D2D2D"/>
    <rect x="28" y="70" width="4" height="4" fill="#1A1A1A"/>
    <rect x="22" y="76" width="4" height="4" fill="#1A1A1A"/>
    <rect x="26" y="76" width="4" height="4" fill="#FF6F00"/>
    <rect x="20" y="84" width="4" height="4" fill="#FF9800"/>
    <rect x="24" y="84" width="4" height="4" fill="#2D2D2D"/>
    <rect x="16" y="92" width="4" height="4" fill="#FFC107"/>
    <rect x="20" y="92" width="4" height="4" fill="#FF9800"/>
    <rect x="14" y="98" width="4" height="4" fill="#FFEB3B"/>
    <rect x="22" y="98" width="4" height="4" fill="#FFEB3B"/>
    <rect x="36" y="70" width="4" height="4" fill="#1A1A1A"/>
    <rect x="40" y="70" width="4" height="4" fill="#2D2D2D"/>
    <rect x="40" y="76" width="4" height="4" fill="#FF6F00"/>
    <rect x="44" y="76" width="4" height="4" fill="#1A1A1A"/>
    <rect x="44" y="84" width="4" height="4" fill="#FF9800"/>
    <rect x="48" y="84" width="4" height="4" fill="#2D2D2D"/>
    <rect x="48" y="92" width="4" height="4" fill="#FFC107"/>
    <rect x="52" y="92" width="4" height="4" fill="#FF9800"/>
    <rect x="48" y="98" width="4" height="4" fill="#FFEB3B"/>
    <rect x="56" y="98" width="4" height="4" fill="#FFEB3B"/>
  </g>
  
  <!-- FRAME 2: MOVE1 (x=128) - THICK SIDE VIEW -->
  <g transform="translate(128, 0)">
    <ellipse cx="32" cy="108" rx="10" ry="2" fill="#000000" opacity="0.5"/>
    <!-- Flames trailing -->
    <rect x="16" y="0" width="4" height="4" fill="#BF360C"/>
    <rect x="20" y="2" width="4" height="4" fill="#E64A19"/>
    <rect x="24" y="4" width="4" height="4" fill="#FF5722"/>
    <rect x="12" y="4" width="4" height="4" fill="#BF360C"/>
    <rect x="28" y="6" width="4" height="4" fill="#FF9800"/>
    <rect x="16" y="8" width="4" height="4" fill="#FF5722"/>
    <rect x="32" y="8" width="4" height="4" fill="#FFA726"/>
    <!-- Horn -->
    <rect x="40" y="14" width="4" height="4" fill="#0D0D0D"/>
    <rect x="44" y="18" width="4" height="4" fill="#1A1A1A"/>
    <rect x="48" y="22" width="4" height="4" fill="#0D0D0D"/>
    <rect x="52" y="26" width="4" height="4" fill="#1A1A1A"/>
    <!-- Head 2 wide -->
    <rect x="26" y="10" width="4" height="4" fill="#FFC107"/>
    <rect x="30" y="10" width="4" height="4" fill="#FFEB3B"/>
    <rect x="34" y="12" width="4" height="4" fill="#FFC107"/>
    <rect x="26" y="14" width="4" height="4" fill="#FFEB3B"/>
    <rect x="30" y="14" width="4" height="4" fill="#FFF176"/>
    <rect x="34" y="16" width="4" height="4" fill="#FF9800"/>
    <rect x="26" y="20" width="4" height="4" fill="#2D2D2D"/>
    <rect x="30" y="20" width="4" height="4" fill="#1A1A1A"/>
    <rect x="34" y="22" width="4" height="4" fill="#2D2D2D"/>
    <rect x="30" y="26" width="4" height="4" fill="#FFEB3B"/>
    <rect x="34" y="28" width="4" height="4" fill="#000000"/>
    <rect x="32" y="34" width="4" height="4" fill="#1A1A1A"/>
    <rect x="36" y="36" width="4" height="4" fill="#FF5722"/>
    <rect x="34" y="42" width="4" height="4" fill="#FF6F00"/>
    <!-- Neck 2 wide -->
    <rect x="32" y="46" width="4" height="4" fill="#FF9800"/>
    <rect x="36" y="46" width="4" height="4" fill="#FF6F00"/>
    <!-- Body 2 wide -->
    <rect x="28" y="50" width="4" height="4" fill="#1A1A1A"/>
    <rect x="32" y="50" width="4" height="4" fill="#2D2D2D"/>
    <rect x="36" y="50" width="4" height="4" fill="#FF9800"/>
    <rect x="40" y="52" width="4" height="4" fill="#FFC107"/>
    <!-- Arm forward 2 wide -->
    <rect x="44" y="50" width="4" height="4" fill="#2D2D2D"/>
    <rect x="48" y="50" width="4" height="4" fill="#1A1A1A"/>
    <rect x="48" y="54" width="4" height="4" fill="#1A1A1A"/>
    <rect x="52" y="54" width="4" height="4" fill="#FF5722"/>
    <rect x="52" y="58" width="4" height="4" fill="#2D2D2D"/>
    <rect x="56" y="58" width="4" height="4" fill="#FF9800"/>
    <rect x="54" y="62" width="4" height="4" fill="#FF9800"/>
    <rect x="58" y="62" width="4" height="4" fill="#2D2D2D"/>
    <rect x="56" y="66" width="4" height="4" fill="#FFC107"/>
    <rect x="60" y="66" width="4" height="4" fill="#FF9800"/>
    <rect x="56" y="70" width="4" height="4" fill="#FFEB3B"/>
    <rect x="60" y="70" width="4" height="4" fill="#FFEB3B"/>
    <!-- Torso 2 wide -->
    <rect x="26" y="54" width="4" height="4" fill="#2D2D2D"/>
    <rect x="30" y="54" width="4" height="4" fill="#1A1A1A"/>
    <rect x="34" y="54" width="4" height="4" fill="#FF9800"/>
    <rect x="38" y="56" width="4" height="4" fill="#FFEB3B"/>
    <rect x="28" y="58" width="4" height="4" fill="#1A1A1A"/>
    <rect x="32" y="58" width="4" height="4" fill="#2D2D2D"/>
    <rect x="36" y="60" width="4" height="4" fill="#FFF176"/>
    <rect x="40" y="62" width="4" height="4" fill="#FFC107"/>
    <rect x="30" y="64" width="4" height="4" fill="#2D2D2D"/>
    <rect x="34" y="66" width="4" height="4" fill="#1A1A1A"/>
    <rect x="38" y="68" width="4" height="4" fill="#FF9800"/>
    <rect x="32" y="72" width="4" height="4" fill="#1A1A1A"/>
    <rect x="36" y="74" width="4" height="4" fill="#2D2D2D"/>
    <!-- Back leg 2 wide -->
    <rect x="22" y="76" width="4" height="4" fill="#2D2D2D"/>
    <rect x="26" y="76" width="4" height="4" fill="#1A1A1A"/>
    <rect x="20" y="80" width="4" height="4" fill="#1A1A1A"/>
    <rect x="24" y="80" width="4" height="4" fill="#FF6F00"/>
    <rect x="18" y="84" width="4" height="4" fill="#FF6F00"/>
    <rect x="22" y="84" width="4" height="4" fill="#2D2D2D"/>
    <rect x="16" y="88" width="4" height="4" fill="#2D2D2D"/>
    <rect x="20" y="88" width="4" height="4" fill="#FF9800"/>
    <rect x="14" y="92" width="4" height="4" fill="#FF9800"/>
    <rect x="18" y="92" width="4" height="4" fill="#2D2D2D"/>
    <rect x="10" y="96" width="4" height="4" fill="#FFC107"/>
    <rect x="14" y="96" width="4" height="4" fill="#FF9800"/>
    <rect x="18" y="96" width="4" height="4" fill="#FFC107"/>
    <rect x="8" y="100" width="4" height="4" fill="#FFEB3B"/>
    <rect x="16" y="100" width="4" height="4" fill="#FFEB3B"/>
    <!-- Front leg forward 2 wide -->
    <rect x="38" y="76" width="4" height="4" fill="#1A1A1A"/>
    <rect x="42" y="76" width="4" height="4" fill="#2D2D2D"/>
    <rect x="42" y="80" width="4" height="4" fill="#FF6F00"/>
    <rect x="46" y="80" width="4" height="4" fill="#1A1A1A"/>
    <rect x="46" y="84" width="4" height="4" fill="#2D2D2D"/>
    <rect x="50" y="84" width="4" height="4" fill="#FF6F00"/>
    <rect x="48" y="88" width="4" height="4" fill="#1A1A1A"/>
    <rect x="52" y="88" width="4" height="4" fill="#FF9800"/>
    <rect x="50" y="92" width="4" height="4" fill="#FF9800"/>
    <rect x="54" y="92" width="4" height="4" fill="#2D2D2D"/>
    <rect x="50" y="96" width="4" height="4" fill="#FFC107"/>
    <rect x="54" y="96" width="4" height="4" fill="#FF9800"/>
    <rect x="58" y="96" width="4" height="4" fill="#FFC107"/>
    <rect x="52" y="100" width="4" height="4" fill="#FFEB3B"/>
    <rect x="60" y="100" width="4" height="4" fill="#FFEB3B"/>
  </g>
  
  <!-- FRAME 3: MOVE2 (x=192) - THICK SIDE alternate -->
  <g transform="translate(192, 0)">
    <ellipse cx="32" cy="108" rx="10" ry="2" fill="#000000" opacity="0.5"/>
    <!-- Flames trailing more -->
    <rect x="12" y="0" width="4" height="4" fill="#BF360C"/>
    <rect x="16" y="2" width="4" height="4" fill="#E64A19"/>
    <rect x="20" y="4" width="4" height="4" fill="#FF5722"/>
    <rect x="8" y="4" width="4" height="4" fill="#BF360C"/>
    <rect x="24" y="6" width="4" height="4" fill="#FF9800"/>
    <rect x="28" y="8" width="4" height="4" fill="#FFA726"/>
    <rect x="12" y="8" width="4" height="4" fill="#FF5722"/>
    <rect x="32" y="10" width="4" height="4" fill="#FF9800"/>
    <!-- Horn -->
    <rect x="40" y="14" width="4" height="4" fill="#0D0D0D"/>
    <rect x="44" y="18" width="4" height="4" fill="#1A1A1A"/>
    <rect x="48" y="22" width="4" height="4" fill="#0D0D0D"/>
    <rect x="52" y="26" width="4" height="4" fill="#1A1A1A"/>
    <!-- Head 2 wide -->
    <rect x="26" y="12" width="4" height="4" fill="#FFC107"/>
    <rect x="30" y="12" width="4" height="4" fill="#FFEB3B"/>
    <rect x="34" y="14" width="4" height="4" fill="#FFC107"/>
    <rect x="26" y="16" width="4" height="4" fill="#FFEB3B"/>
    <rect x="30" y="16" width="4" height="4" fill="#FFF176"/>
    <rect x="34" y="18" width="4" height="4" fill="#FF9800"/>
    <rect x="26" y="22" width="4" height="4" fill="#2D2D2D"/>
    <rect x="30" y="22" width="4" height="4" fill="#1A1A1A"/>
    <rect x="34" y="24" width="4" height="4" fill="#2D2D2D"/>
    <rect x="30" y="28" width="4" height="4" fill="#FFEB3B"/>
    <rect x="34" y="30" width="4" height="4" fill="#000000"/>
    <rect x="32" y="36" width="4" height="4" fill="#1A1A1A"/>
    <rect x="36" y="38" width="4" height="4" fill="#FF5722"/>
    <rect x="34" y="44" width="4" height="4" fill="#FF6F00"/>
    <!-- Neck 2 wide -->
    <rect x="32" y="48" width="4" height="4" fill="#FF9800"/>
    <rect x="36" y="48" width="4" height="4" fill="#FF6F00"/>
    <!-- Body 2 wide -->
    <rect x="28" y="52" width="4" height="4" fill="#1A1A1A"/>
    <rect x="32" y="52" width="4" height="4" fill="#2D2D2D"/>
    <rect x="36" y="52" width="4" height="4" fill="#FF9800"/>
    <rect x="40" y="54" width="4" height="4" fill="#FFC107"/>
    <!-- Arm back 2 wide -->
    <rect x="42" y="54" width="4" height="4" fill="#2D2D2D"/>
    <rect x="46" y="54" width="4" height="4" fill="#1A1A1A"/>
    <rect x="44" y="58" width="4" height="4" fill="#1A1A1A"/>
    <rect x="48" y="58" width="4" height="4" fill="#FF5722"/>
    <rect x="44" y="62" width="4" height="4" fill="#2D2D2D"/>
    <rect x="48" y="62" width="4" height="4" fill="#FF9800"/>
    <rect x="42" y="66" width="4" height="4" fill="#FF9800"/>
    <rect x="46" y="66" width="4" height="4" fill="#2D2D2D"/>
    <rect x="40" y="70" width="4" height="4" fill="#FFC107"/>
    <rect x="44" y="70" width="4" height="4" fill="#FF9800"/>
    <rect x="38" y="74" width="4" height="4" fill="#FFEB3B"/>
    <rect x="42" y="74" width="4" height="4" fill="#FFEB3B"/>
    <!-- Torso 2 wide -->
    <rect x="26" y="56" width="4" height="4" fill="#2D2D2D"/>
    <rect x="30" y="56" width="4" height="4" fill="#1A1A1A"/>
    <rect x="34" y="56" width="4" height="4" fill="#FF9800"/>
    <rect x="38" y="58" width="4" height="4" fill="#FFEB3B"/>
    <rect x="28" y="60" width="4" height="4" fill="#1A1A1A"/>
    <rect x="32" y="60" width="4" height="4" fill="#2D2D2D"/>
    <rect x="36" y="62" width="4" height="4" fill="#FFF176"/>
    <rect x="40" y="64" width="4" height="4" fill="#FFC107"/>
    <rect x="30" y="66" width="4" height="4" fill="#2D2D2D"/>
    <rect x="34" y="68" width="4" height="4" fill="#1A1A1A"/>
    <rect x="38" y="70" width="4" height="4" fill="#FF9800"/>
    <rect x="32" y="74" width="4" height="4" fill="#1A1A1A"/>
    <rect x="36" y="76" width="4" height="4" fill="#2D2D2D"/>
    <!-- Front leg back 2 wide -->
    <rect x="40" y="78" width="4" height="4" fill="#1A1A1A"/>
    <rect x="44" y="78" width="4" height="4" fill="#2D2D2D"/>
    <rect x="38" y="82" width="4" height="4" fill="#FF6F00"/>
    <rect x="42" y="82" width="4" height="4" fill="#1A1A1A"/>
    <rect x="36" y="86" width="4" height="4" fill="#2D2D2D"/>
    <rect x="40" y="86" width="4" height="4" fill="#FF6F00"/>
    <rect x="34" y="90" width="4" height="4" fill="#1A1A1A"/>
    <rect x="38" y="90" width="4" height="4" fill="#FF9800"/>
    <rect x="32" y="94" width="4" height="4" fill="#FF9800"/>
    <rect x="36" y="94" width="4" height="4" fill="#2D2D2D"/>
    <rect x="28" y="98" width="4" height="4" fill="#FFC107"/>
    <rect x="32" y="98" width="4" height="4" fill="#FF9800"/>
    <rect x="36" y="98" width="4" height="4" fill="#FFC107"/>
    <rect x="28" y="102" width="4" height="4" fill="#FFEB3B"/>
    <rect x="36" y="102" width="4" height="4" fill="#FFEB3B"/>
    <!-- Back leg forward 2 wide -->
    <rect x="26" y="78" width="4" height="4" fill="#2D2D2D"/>
    <rect x="30" y="78" width="4" height="4" fill="#1A1A1A"/>
    <rect x="30" y="82" width="4" height="4" fill="#FF6F00"/>
    <rect x="34" y="82" width="4" height="4" fill="#2D2D2D"/>
    <rect x="34" y="86" width="4" height="4" fill="#2D2D2D"/>
    <rect x="38" y="86" width="4" height="4" fill="#FF6F00"/>
    <rect x="38" y="90" width="4" height="4" fill="#1A1A1A"/>
    <rect x="42" y="90" width="4" height="4" fill="#FF9800"/>
    <rect x="42" y="94" width="4" height="4" fill="#FF9800"/>
    <rect x="46" y="94" width="4" height="4" fill="#2D2D2D"/>
    <rect x="44" y="98" width="4" height="4" fill="#FFC107"/>
    <rect x="48" y="98" width="4" height="4" fill="#FF9800"/>
    <rect x="52" y="98" width="4" height="4" fill="#FFC107"/>
    <rect x="46" y="102" width="4" height="4" fill="#FFEB3B"/>
    <rect x="54" y="102" width="4" height="4" fill="#FFEB3B"/>
  </g>
  
  <!-- FRAME 4: DEATH1 (x=256) -->
  <g transform="translate(256, 0)">
    <ellipse cx="32" cy="108" rx="10" ry="2" fill="#000000" opacity="0.4"/>
    <rect x="26" y="6" width="4" height="4" fill="#BF360C"/>
    <rect x="34" y="4" width="4" height="4" fill="#E64A19"/>
    <rect x="10" y="20" width="4" height="4" fill="#0D0D0D"/>
    <rect x="50" y="20" width="4" height="4" fill="#0D0D0D"/>
    <rect x="26" y="14" width="4" height="4" fill="#FFC107"/>
    <rect x="30" y="16" width="4" height="4" fill="#FFEB3B"/>
    <rect x="32" y="26" width="4" height="4" fill="#FFEB3B"/>
    <rect x="28" y="32" width="4" height="4" fill="#1A1A1A"/>
    <rect x="26" y="46" width="4" height="4" fill="#1A1A1A"/>
    <rect x="30" y="48" width="4" height="4" fill="#FF9800"/>
    <rect x="34" y="50" width="4" height="4" fill="#FFC107"/>
    <rect x="28" y="54" width="4" height="4" fill="#2D2D2D"/>
    <rect x="32" y="56" width="4" height="4" fill="#FFEB3B"/>
    <rect x="14" y="50" width="4" height="4" fill="#2D2D2D"/>
    <rect x="10" y="56" width="4" height="4" fill="#FF5722"/>
    <rect x="6" y="64" width="4" height="4" fill="#FF9800"/>
    <rect x="2" y="72" width="4" height="4" fill="#FFC107"/>
    <rect x="46" y="52" width="4" height="4" fill="#2D2D2D"/>
    <rect x="50" y="58" width="4" height="4" fill="#FF5722"/>
    <rect x="54" y="66" width="4" height="4" fill="#FF9800"/>
    <rect x="58" y="74" width="4" height="4" fill="#FFC107"/>
    <rect x="22" y="70" width="4" height="4" fill="#1A1A1A"/>
    <rect x="38" y="70" width="4" height="4" fill="#1A1A1A"/>
    <rect x="20" y="78" width="4" height="4" fill="#FF6F00"/>
    <rect x="40" y="78" width="4" height="4" fill="#FF6F00"/>
    <rect x="18" y="86" width="4" height="4" fill="#FF9800"/>
    <rect x="42" y="86" width="4" height="4" fill="#FF9800"/>
    <rect x="16" y="94" width="4" height="4" fill="#FFC107"/>
    <rect x="44" y="94" width="4" height="4" fill="#FFC107"/>
  </g>
  
  <!-- FRAME 5: DEATH2 (x=320) -->
  <g transform="translate(320, 0)">
    <ellipse cx="32" cy="108" rx="8" ry="2" fill="#000000" opacity="0.3"/>
    <rect x="28" y="26" width="4" height="4" fill="#E64A19"/>
    <rect x="36" y="22" width="4" height="4" fill="#FF5722"/>
    <rect x="12" y="34" width="4" height="4" fill="#0D0D0D"/>
    <rect x="48" y="32" width="4" height="4" fill="#1A1A1A"/>
    <rect x="28" y="34" width="4" height="4" fill="#FFC107"/>
    <rect x="32" y="36" width="4" height="4" fill="#2D2D2D"/>
    <rect x="30" y="42" width="4" height="4" fill="#FFEB3B"/>
    <rect x="26" y="50" width="4" height="4" fill="#1A1A1A"/>
    <rect x="30" y="54" width="4" height="4" fill="#FF9800"/>
    <rect x="28" y="62" width="4" height="4" fill="#FFC107"/>
    <rect x="14" y="54" width="4" height="4" fill="#FF5722"/>
    <rect x="46" y="52" width="4" height="4" fill="#FF5722"/>
    <rect x="8" y="68" width="4" height="4" fill="#FFC107"/>
    <rect x="52" y="66" width="4" height="4" fill="#FFC107"/>
    <rect x="22" y="74" width="4" height="4" fill="#2D2D2D"/>
    <rect x="38" y="74" width="4" height="4" fill="#2D2D2D"/>
    <rect x="20" y="82" width="4" height="4" fill="#FF9800"/>
    <rect x="40" y="82" width="4" height="4" fill="#FF9800"/>
    <rect x="18" y="90" width="4" height="4" fill="#FFC107"/>
    <rect x="42" y="90" width="4" height="4" fill="#FFC107"/>
  </g>
  
  <!-- FRAME 6: DEATH3 (x=384) -->
  <g transform="translate(384, 0)">
    <ellipse cx="32" cy="108" rx="6" ry="1" fill="#000000" opacity="0.2"/>
    <rect x="24" y="38" width="4" height="4" fill="#E64A19"/>
    <rect x="40" y="34" width="4" height="4" fill="#FF5722"/>
    <rect x="18" y="50" width="4" height="4" fill="#FF9800"/>
    <rect x="46" y="46" width="4" height="4" fill="#FF9800"/>
    <rect x="28" y="62" width="4" height="4" fill="#2D2D2D"/>
    <rect x="32" y="66" width="4" height="4" fill="#1A1A1A"/>
    <rect x="30" y="72" width="4" height="4" fill="#FFEB3B"/>
    <rect x="34" y="76" width="4" height="4" fill="#FFC107"/>
    <rect x="16" y="70" width="4" height="4" fill="#FF5722"/>
    <rect x="48" y="66" width="4" height="4" fill="#FF5722"/>
    <rect x="22" y="84" width="4" height="4" fill="#FF9800"/>
    <rect x="42" y="80" width="4" height="4" fill="#FF9800"/>
    <rect x="28" y="92" width="4" height="4" fill="#FFC107"/>
    <rect x="36" y="88" width="4" height="4" fill="#FFC107"/>
  </g>
  
  <!-- FRAME 7: ASH (x=448) -->
  <g transform="translate(448, 0)">
    <rect x="12" y="90" width="4" height="4" fill="#424242"/>
    <rect x="16" y="90" width="4" height="4" fill="#616161"/>
    <rect x="20" y="90" width="4" height="4" fill="#757575"/>
    <rect x="24" y="90" width="4" height="4" fill="#9E9E9E"/>
    <rect x="28" y="90" width="4" height="4" fill="#BDBDBD"/>
    <rect x="32" y="90" width="4" height="4" fill="#BDBDBD"/>
    <rect x="36" y="90" width="4" height="4" fill="#9E9E9E"/>
    <rect x="40" y="90" width="4" height="4" fill="#757575"/>
    <rect x="44" y="90" width="4" height="4" fill="#616161"/>
    <rect x="48" y="90" width="4" height="4" fill="#424242"/>
    <rect x="8" y="94" width="4" height="4" fill="#424242"/>
    <rect x="12" y="94" width="4" height="4" fill="#616161"/>
    <rect x="16" y="94" width="4" height="4" fill="#757575"/>
    <rect x="20" y="94" width="4" height="4" fill="#9E9E9E"/>
    <rect x="24" y="94" width="4" height="4" fill="#BDBDBD"/>
    <rect x="28" y="94" width="4" height="4" fill="#E0E0E0"/>
    <rect x="32" y="94" width="4" height="4" fill="#E0E0E0"/>
    <rect x="36" y="94" width="4" height="4" fill="#BDBDBD"/>
    <rect x="40" y="94" width="4" height="4" fill="#9E9E9E"/>
    <rect x="44" y="94" width="4" height="4" fill="#757575"/>
    <rect x="48" y="94" width="4" height="4" fill="#616161"/>
    <rect x="52" y="94" width="4" height="4" fill="#424242"/>
    <rect x="12" y="98" width="4" height="4" fill="#424242"/>
    <rect x="16" y="98" width="4" height="4" fill="#616161"/>
    <rect x="20" y="98" width="4" height="4" fill="#757575"/>
    <rect x="24" y="98" width="4" height="4" fill="#9E9E9E"/>
    <rect x="28" y="98" width="4" height="4" fill="#BDBDBD"/>
    <rect x="32" y="98" width="4" height="4" fill="#BDBDBD"/>
    <rect x="36" y="98" width="4" height="4" fill="#9E9E9E"/>
    <rect x="40" y="98" width="4" height="4" fill="#757575"/>
    <rect x="44" y="98" width="4" height="4" fill="#616161"/>
    <rect x="48" y="98" width="4" height="4" fill="#424242"/>
    <rect x="20" y="102" width="4" height="4" fill="#424242"/>
    <rect x="24" y="102" width="4" height="4" fill="#616161"/>
    <rect x="28" y="102" width="4" height="4" fill="#757575"/>
    <rect x="32" y="102" width="4" height="4" fill="#757575"/>
    <rect x="36" y="102" width="4" height="4" fill="#616161"/>
    <rect x="40" y="102" width="4" height="4" fill="#424242"/>
    <rect x="18" y="92" width="4" height="4" fill="#FF5722"/>
    <rect x="30" y="92" width="4" height="4" fill="#FF9800"/>
    <rect x="42" y="92" width="4" height="4" fill="#BF360C"/>
    <rect x="24" y="96" width="4" height="4" fill="#E64A19"/>
    <rect x="36" y="96" width="4" height="4" fill="#FF5722"/>
    <rect x="28" y="82" width="4" height="4" fill="#757575" opacity="0.4"/>
    <rect x="32" y="76" width="4" height="4" fill="#616161" opacity="0.3"/>
  </g>
</svg>
