<svg xmlns="http://www.w3.org/2000/svg" viewBox="0 0 192 40" width="384" height="80">
  <!-- 
    IMP SPRITE SHEET - 6 frames, each 32x40
    Layout: [idle] [walk1] [walk2] [death1] [death2] [death3_corpse]
    NO BACKGROUND - transparent
  -->
  
  <!-- FRAME 0: IDLE (x=0) -->
  <g transform="translate(0, 0)">
    <rect x="4" y="0" width="4" height="4" fill="#4A0000"/>
    <rect x="24" y="0" width="4" height="4" fill="#4A0000"/>
    <rect x="4" y="4" width="4" height="4" fill="#6B0000"/>
    <rect x="24" y="4" width="4" height="4" fill="#6B0000"/>
    <rect x="0" y="8" width="4" height="4" fill="#8B0000"/>
    <rect x="28" y="8" width="4" height="4" fill="#8B0000"/>
    <rect x="8" y="4" width="4" height="4" fill="#C62828"/>
    <rect x="12" y="4" width="4" height="4" fill="#D32F2F"/>
    <rect x="16" y="4" width="4" height="4" fill="#D32F2F"/>
    <rect x="20" y="4" width="4" height="4" fill="#C62828"/>
    <rect x="4" y="8" width="4" height="4" fill="#C62828"/>
    <rect x="8" y="8" width="4" height="4" fill="#E53935"/>
    <rect x="12" y="8" width="4" height="4" fill="#EF5350"/>
    <rect x="16" y="8" width="4" height="4" fill="#EF5350"/>
    <rect x="20" y="8" width="4" height="4" fill="#E53935"/>
    <rect x="24" y="8" width="4" height="4" fill="#C62828"/>
    <rect x="4" y="12" width="4" height="4" fill="#D32F2F"/>
    <rect x="8" y="12" width="4" height="4" fill="#FFEB3B"/>
    <rect x="12" y="12" width="4" height="4" fill="#E53935"/>
    <rect x="16" y="12" width="4" height="4" fill="#E53935"/>
    <rect x="20" y="12" width="4" height="4" fill="#FFEB3B"/>
    <rect x="24" y="12" width="4" height="4" fill="#D32F2F"/>
    <rect x="8" y="16" width="4" height="4" fill="#D32F2F"/>
    <rect x="12" y="16" width="4" height="4" fill="#1A1A1A"/>
    <rect x="16" y="16" width="4" height="4" fill="#1A1A1A"/>
    <rect x="20" y="16" width="4" height="4" fill="#D32F2F"/>
    <rect x="12" y="20" width="4" height="4" fill="#B71C1C"/>
    <rect x="16" y="20" width="4" height="4" fill="#B71C1C"/>
    <rect x="0" y="20" width="4" height="4" fill="#4A0000"/>
    <rect x="0" y="24" width="4" height="4" fill="#6B0000"/>
    <rect x="4" y="24" width="4" height="4" fill="#8B0000"/>
    <rect x="0" y="28" width="4" height="4" fill="#4A0000"/>
    <rect x="28" y="20" width="4" height="4" fill="#4A0000"/>
    <rect x="28" y="24" width="4" height="4" fill="#6B0000"/>
    <rect x="24" y="24" width="4" height="4" fill="#8B0000"/>
    <rect x="28" y="28" width="4" height="4" fill="#4A0000"/>
    <rect x="8" y="24" width="4" height="4" fill="#C62828"/>
    <rect x="12" y="24" width="4" height="4" fill="#E53935"/>
    <rect x="16" y="24" width="4" height="4" fill="#E53935"/>
    <rect x="20" y="24" width="4" height="4" fill="#C62828"/>
    <rect x="8" y="28" width="4" height="4" fill="#B71C1C"/>
    <rect x="12" y="28" width="4" height="4" fill="#D32F2F"/>
    <rect x="16" y="28" width="4" height="4" fill="#D32F2F"/>
    <rect x="20" y="28" width="4" height="4" fill="#B71C1C"/>
    <rect x="8" y="32" width="4" height="4" fill="#8B0000"/>
    <rect x="20" y="32" width="4" height="4" fill="#8B0000"/>
    <rect x="4" y="36" width="4" height="4" fill="#4A0000"/>
    <rect x="8" y="36" width="4" height="4" fill="#4A0000"/>
    <rect x="20" y="36" width="4" height="4" fill="#4A0000"/>
    <rect x="24" y="36" width="4" height="4" fill="#4A0000"/>
  </g>
  
  <!-- FRAME 1: WALK1 - left foot forward (x=32) -->
  <g transform="translate(32, 0)">
    <rect x="4" y="0" width="4" height="4" fill="#4A0000"/>
    <rect x="24" y="0" width="4" height="4" fill="#4A0000"/>
    <rect x="4" y="4" width="4" height="4" fill="#6B0000"/>
    <rect x="24" y="4" width="4" height="4" fill="#6B0000"/>
    <rect x="0" y="8" width="4" height="4" fill="#8B0000"/>
    <rect x="28" y="8" width="4" height="4" fill="#8B0000"/>
    <rect x="8" y="4" width="4" height="4" fill="#C62828"/>
    <rect x="12" y="4" width="4" height="4" fill="#D32F2F"/>
    <rect x="16" y="4" width="4" height="4" fill="#D32F2F"/>
    <rect x="20" y="4" width="4" height="4" fill="#C62828"/>
    <rect x="4" y="8" width="4" height="4" fill="#C62828"/>
    <rect x="8" y="8" width="4" height="4" fill="#E53935"/>
    <rect x="12" y="8" width="4" height="4" fill="#EF5350"/>
    <rect x="16" y="8" width="4" height="4" fill="#EF5350"/>
    <rect x="20" y="8" width="4" height="4" fill="#E53935"/>
    <rect x="24" y="8" width="4" height="4" fill="#C62828"/>
    <rect x="4" y="12" width="4" height="4" fill="#D32F2F"/>
    <rect x="8" y="12" width="4" height="4" fill="#FFEB3B"/>
    <rect x="12" y="12" width="4" height="4" fill="#E53935"/>
    <rect x="16" y="12" width="4" height="4" fill="#E53935"/>
    <rect x="20" y="12" width="4" height="4" fill="#FFEB3B"/>
    <rect x="24" y="12" width="4" height="4" fill="#D32F2F"/>
    <rect x="8" y="16" width="4" height="4" fill="#D32F2F"/>
    <rect x="12" y="16" width="4" height="4" fill="#1A1A1A"/>
    <rect x="16" y="16" width="4" height="4" fill="#1A1A1A"/>
    <rect x="20" y="16" width="4" height="4" fill="#D32F2F"/>
    <rect x="12" y="20" width="4" height="4" fill="#B71C1C"/>
    <rect x="16" y="20" width="4" height="4" fill="#B71C1C"/>
    <rect x="0" y="20" width="4" height="4" fill="#4A0000"/>
    <rect x="0" y="24" width="4" height="4" fill="#6B0000"/>
    <rect x="4" y="24" width="4" height="4" fill="#8B0000"/>
    <rect x="0" y="28" width="4" height="4" fill="#4A0000"/>
    <rect x="28" y="20" width="4" height="4" fill="#4A0000"/>
    <rect x="28" y="24" width="4" height="4" fill="#6B0000"/>
    <rect x="24" y="24" width="4" height="4" fill="#8B0000"/>
    <rect x="28" y="28" width="4" height="4" fill="#4A0000"/>
    <rect x="8" y="24" width="4" height="4" fill="#C62828"/>
    <rect x="12" y="24" width="4" height="4" fill="#E53935"/>
    <rect x="16" y="24" width="4" height="4" fill="#E53935"/>
    <rect x="20" y="24" width="4" height="4" fill="#C62828"/>
    <rect x="8" y="28" width="4" height="4" fill="#B71C1C"/>
    <rect x="12" y="28" width="4" height="4" fill="#D32F2F"/>
    <rect x="16" y="28" width="4" height="4" fill="#D32F2F"/>
    <rect x="20" y="28" width="4" height="4" fill="#B71C1C"/>
    <!-- Left leg forward -->
    <rect x="4" y="32" width="4" height="4" fill="#8B0000"/>
    <rect x="0" y="36" width="4" height="4" fill="#4A0000"/>
    <rect x="4" y="36" width="4" height="4" fill="#4A0000"/>
    <!-- Right leg back -->
    <rect x="20" y="32" width="4" height="4" fill="#8B0000"/>
    <rect x="24" y="32" width="4" height="4" fill="#8B0000"/>
    <rect x="28" y="36" width="4" height="4" fill="#4A0000"/>
  </g>
  
  <!-- FRAME 2: WALK2 - right foot forward (x=64) -->
  <g transform="translate(64, 0)">
    <rect x="4" y="0" width="4" height="4" fill="#4A0000"/>
    <rect x="24" y="0" width="4" height="4" fill="#4A0000"/>
    <rect x="4" y="4" width="4" height="4" fill="#6B0000"/>
    <rect x="24" y="4" width="4" height="4" fill="#6B0000"/>
    <rect x="0" y="8" width="4" height="4" fill="#8B0000"/>
    <rect x="28" y="8" width="4" height="4" fill="#8B0000"/>
    <rect x="8" y="4" width="4" height="4" fill="#C62828"/>
    <rect x="12" y="4" width="4" height="4" fill="#D32F2F"/>
    <rect x="16" y="4" width="4" height="4" fill="#D32F2F"/>
    <rect x="20" y="4" width="4" height="4" fill="#C62828"/>
    <rect x="4" y="8" width="4" height="4" fill="#C62828"/>
    <rect x="8" y="8" width="4" height="4" fill="#E53935"/>
    <rect x="12" y="8" width="4" height="4" fill="#EF5350"/>
    <rect x="16" y="8" width="4" height="4" fill="#EF5350"/>
    <rect x="20" y="8" width="4" height="4" fill="#E53935"/>
    <rect x="24" y="8" width="4" height="4" fill="#C62828"/>
    <rect x="4" y="12" width="4" height="4" fill="#D32F2F"/>
    <rect x="8" y="12" width="4" height="4" fill="#FFEB3B"/>
    <rect x="12" y="12" width="4" height="4" fill="#E53935"/>
    <rect x="16" y="12" width="4" height="4" fill="#E53935"/>
    <rect x="20" y="12" width="4" height="4" fill="#FFEB3B"/>
    <rect x="24" y="12" width="4" height="4" fill="#D32F2F"/>
    <rect x="8" y="16" width="4" height="4" fill="#D32F2F"/>
    <rect x="12" y="16" width="4" height="4" fill="#1A1A1A"/>
    <rect x="16" y="16" width="4" height="4" fill="#1A1A1A"/>
    <rect x="20" y="16" width="4" height="4" fill="#D32F2F"/>
    <rect x="12" y="20" width="4" height="4" fill="#B71C1C"/>
    <rect x="16" y="20" width="4" height="4" fill="#B71C1C"/>
    <rect x="0" y="20" width="4" height="4" fill="#4A0000"/>
    <rect x="0" y="24" width="4" height="4" fill="#6B0000"/>
    <rect x="4" y="24" width="4" height="4" fill="#8B0000"/>
    <rect x="0" y="28" width="4" height="4" fill="#4A0000"/>
    <rect x="28" y="20" width="4" height="4" fill="#4A0000"/>
    <rect x="28" y="24" width="4" height="4" fill="#6B0000"/>
    <rect x="24" y="24" width="4" height="4" fill="#8B0000"/>
    <rect x="28" y="28" width="4" height="4" fill="#4A0000"/>
    <rect x="8" y="24" width="4" height="4" fill="#C62828"/>
    <rect x="12" y="24" width="4" height="4" fill="#E53935"/>
    <rect x="16" y="24" width="4" height="4" fill="#E53935"/>
    <rect x="20" y="24" width="4" height="4" fill="#C62828"/>
    <rect x="8" y="28" width="4" height="4" fill="#B71C1C"/>
    <rect x="12" y="28" width="4" height="4" fill="#D32F2F"/>
    <rect x="16" y="28" width="4" height="4" fill="#D32F2F"/>
    <rect x="20" y="28" width="4" height="4" fill="#B71C1C"/>
    <!-- Left leg back -->
    <rect x="8" y="32" width="4" height="4" fill="#8B0000"/>
    <rect x="4" y="32" width="4" height="4" fill="#8B0000"/>
    <rect x="0" y="36" width="4" height="4" fill="#4A0000"/>
    <!-- Right leg forward -->
    <rect x="24" y="32" width="4" height="4" fill="#8B0000"/>
    <rect x="24" y="36" width="4" height="4" fill="#4A0000"/>
    <rect x="28" y="36" width="4" height="4" fill="#4A0000"/>
  </g>
  
  <!-- FRAME 3: DEATH1 - hit/recoil, eyes flash (x=96) -->
  <g transform="translate(96, 0)">
    <rect x="4" y="2" width="4" height="4" fill="#4A0000"/>
    <rect x="24" y="2" width="4" height="4" fill="#4A0000"/>
    <rect x="4" y="6" width="4" height="4" fill="#6B0000"/>
    <rect x="24" y="6" width="4" height="4" fill="#6B0000"/>
    <rect x="0" y="10" width="4" height="4" fill="#8B0000"/>
    <rect x="28" y="10" width="4" height="4" fill="#8B0000"/>
    <rect x="8" y="6" width="4" height="4" fill="#C62828"/>
    <rect x="12" y="6" width="4" height="4" fill="#D32F2F"/>
    <rect x="16" y="6" width="4" height="4" fill="#D32F2F"/>
    <rect x="20" y="6" width="4" height="4" fill="#C62828"/>
    <rect x="4" y="10" width="4" height="4" fill="#C62828"/>
    <rect x="8" y="10" width="4" height="4" fill="#E53935"/>
    <rect x="12" y="10" width="4" height="4" fill="#EF5350"/>
    <rect x="16" y="10" width="4" height="4" fill="#EF5350"/>
    <rect x="20" y="10" width="4" height="4" fill="#E53935"/>
    <rect x="24" y="10" width="4" height="4" fill="#C62828"/>
    <!-- Eyes flash white -->
    <rect x="4" y="14" width="4" height="4" fill="#D32F2F"/>
    <rect x="8" y="14" width="4" height="4" fill="#FFFFFF"/>
    <rect x="12" y="14" width="4" height="4" fill="#E53935"/>
    <rect x="16" y="14" width="4" height="4" fill="#E53935"/>
    <rect x="20" y="14" width="4" height="4" fill="#FFFFFF"/>
    <rect x="24" y="14" width="4" height="4" fill="#D32F2F"/>
    <rect x="8" y="18" width="4" height="4" fill="#D32F2F"/>
    <rect x="12" y="18" width="4" height="4" fill="#1A1A1A"/>
    <rect x="16" y="18" width="4" height="4" fill="#1A1A1A"/>
    <rect x="20" y="18" width="4" height="4" fill="#D32F2F"/>
    <rect x="12" y="22" width="4" height="4" fill="#B71C1C"/>
    <rect x="16" y="22" width="4" height="4" fill="#B71C1C"/>
    <rect x="8" y="26" width="4" height="4" fill="#C62828"/>
    <rect x="12" y="26" width="4" height="4" fill="#E53935"/>
    <rect x="16" y="26" width="4" height="4" fill="#E53935"/>
    <rect x="20" y="26" width="4" height="4" fill="#C62828"/>
    <rect x="8" y="30" width="4" height="4" fill="#B71C1C"/>
    <rect x="12" y="30" width="4" height="4" fill="#D32F2F"/>
    <rect x="16" y="30" width="4" height="4" fill="#D32F2F"/>
    <rect x="20" y="30" width="4" height="4" fill="#B71C1C"/>
    <rect x="8" y="34" width="4" height="4" fill="#8B0000"/>
    <rect x="20" y="34" width="4" height="4" fill="#8B0000"/>
    <rect x="4" y="36" width="4" height="4" fill="#4A0000"/>
    <rect x="8" y="36" width="4" height="4" fill="#4A0000"/>
    <rect x="20" y="36" width="4" height="4" fill="#4A0000"/>
    <rect x="24" y="36" width="4" height="4" fill="#4A0000"/>
  </g>
  
  <!-- FRAME 4: DEATH2 - splitting apart, blood spray (x=128) -->
  <g transform="translate(128, 0)">
    <!-- Left half tilting -->
    <rect x="0" y="4" width="4" height="4" fill="#4A0000"/>
    <rect x="0" y="8" width="4" height="4" fill="#6B0000"/>
    <rect x="4" y="8" width="4" height="4" fill="#C62828"/>
    <rect x="4" y="12" width="4" height="4" fill="#E53935"/>
    <rect x="0" y="12" width="4" height="4" fill="#8B0000"/>
    <rect x="4" y="16" width="4" height="4" fill="#FFEB3B"/>
    <rect x="0" y="20" width="4" height="4" fill="#D32F2F"/>
    <rect x="4" y="20" width="4" height="4" fill="#1A1A1A"/>
    <rect x="0" y="24" width="4" height="4" fill="#B71C1C"/>
    <rect x="4" y="24" width="4" height="4" fill="#C62828"/>
    <rect x="0" y="28" width="4" height="4" fill="#8B0000"/>
    <rect x="4" y="28" width="4" height="4" fill="#B71C1C"/>
    <rect x="0" y="32" width="4" height="4" fill="#4A0000"/>
    <rect x="4" y="32" width="4" height="4" fill="#8B0000"/>
    <rect x="0" y="36" width="4" height="4" fill="#4A0000"/>
    
    <!-- Blood spray center -->
    <rect x="10" y="8" width="4" height="4" fill="#8B0000"/>
    <rect x="14" y="6" width="4" height="4" fill="#6B0000"/>
    <rect x="12" y="12" width="4" height="4" fill="#B71C1C"/>
    <rect x="16" y="10" width="4" height="4" fill="#8B0000"/>
    <rect x="10" y="16" width="4" height="4" fill="#C62828"/>
    <rect x="14" y="14" width="4" height="4" fill="#8B0000"/>
    <rect x="18" y="12" width="4" height="4" fill="#6B0000"/>
    <rect x="12" y="20" width="4" height="4" fill="#8B0000"/>
    <rect x="16" y="18" width="4" height="4" fill="#B71C1C"/>
    <rect x="10" y="24" width="4" height="4" fill="#6B0000"/>
    <rect x="14" y="22" width="4" height="4" fill="#8B0000"/>
    <rect x="18" y="20" width="4" height="4" fill="#6B0000"/>
    
    <!-- Right half tilting -->
    <rect x="28" y="4" width="4" height="4" fill="#4A0000"/>
    <rect x="28" y="8" width="4" height="4" fill="#6B0000"/>
    <rect x="24" y="8" width="4" height="4" fill="#C62828"/>
    <rect x="24" y="12" width="4" height="4" fill="#E53935"/>
    <rect x="28" y="12" width="4" height="4" fill="#8B0000"/>
    <rect x="24" y="16" width="4" height="4" fill="#FFEB3B"/>
    <rect x="28" y="20" width="4" height="4" fill="#D32F2F"/>
    <rect x="24" y="20" width="4" height="4" fill="#1A1A1A"/>
    <rect x="28" y="24" width="4" height="4" fill="#B71C1C"/>
    <rect x="24" y="24" width="4" height="4" fill="#C62828"/>
    <rect x="28" y="28" width="4" height="4" fill="#8B0000"/>
    <rect x="24" y="28" width="4" height="4" fill="#B71C1C"/>
    <rect x="28" y="32" width="4" height="4" fill="#4A0000"/>
    <rect x="24" y="32" width="4" height="4" fill="#8B0000"/>
    <rect x="28" y="36" width="4" height="4" fill="#4A0000"/>
  </g>
  
  <!-- FRAME 5: DEATH3 - corpse with blood pool and guts (x=160) -->
  <g transform="translate(160, 0)">
    <!-- Blood pool base -->
    <rect x="4" y="28" width="4" height="4" fill="#4A0000"/>
    <rect x="8" y="28" width="4" height="4" fill="#6B0000"/>
    <rect x="12" y="28" width="4" height="4" fill="#6B0000"/>
    <rect x="16" y="28" width="4" height="4" fill="#6B0000"/>
    <rect x="20" y="28" width="4" height="4" fill="#6B0000"/>
    <rect x="24" y="28" width="4" height="4" fill="#4A0000"/>
    <rect x="2" y="32" width="4" height="4" fill="#4A0000"/>
    <rect x="6" y="32" width="4" height="4" fill="#6B0000"/>
    <rect x="10" y="32" width="4" height="4" fill="#8B0000"/>
    <rect x="14" y="32" width="4" height="4" fill="#8B0000"/>
    <rect x="18" y="32" width="4" height="4" fill="#8B0000"/>
    <rect x="22" y="32" width="4" height="4" fill="#6B0000"/>
    <rect x="26" y="32" width="4" height="4" fill="#4A0000"/>
    <rect x="4" y="36" width="4" height="4" fill="#4A0000"/>
    <rect x="8" y="36" width="4" height="4" fill="#6B0000"/>
    <rect x="12" y="36" width="4" height="4" fill="#8B0000"/>
    <rect x="16" y="36" width="4" height="4" fill="#8B0000"/>
    <rect x="20" y="36" width="4" height="4" fill="#6B0000"/>
    <rect x="24" y="36" width="4" height="4" fill="#4A0000"/>
    
    <!-- Guts/entrails on blood -->
    <rect x="10" y="30" width="4" height="4" fill="#E57373"/>
    <rect x="14" y="30" width="4" height="4" fill="#EF9A9A"/>
    <rect x="18" y="30" width="4" height="4" fill="#E57373"/>
    <rect x="12" y="34" width="4" height="4" fill="#FFCC80"/>
    <rect x="16" y="34" width="4" height="4" fill="#FFCC80"/>
    
    <!-- Left body chunk -->
    <rect x="2" y="24" width="4" height="4" fill="#8B0000"/>
    <rect x="6" y="24" width="4" height="4" fill="#B71C1C"/>
    <rect x="2" y="28" width="2" height="4" fill="#6B0000"/>
    
    <!-- Right body chunk -->
    <rect x="22" y="24" width="4" height="4" fill="#B71C1C"/>
    <rect x="26" y="24" width="4" height="4" fill="#8B0000"/>
    <rect x="28" y="28" width="2" height="4" fill="#6B0000"/>
    
    <!-- Scattered horn piece -->
    <rect x="0" y="20" width="4" height="4" fill="#4A0000"/>
    
    <!-- Blood drips above -->
    <rect x="8" y="22" width="4" height="4" fill="#4A0000"/>
    <rect x="20" y="20" width="4" height="4" fill="#4A0000"/>
    <rect x="14" y="24" width="4" height="4" fill="#6B0000"/>
  </g>
</svg>